<svg width="821" height="821" viewBox="0 0 821 821" fill="none" xmlns="http://www.w3.org/2000/svg">
<circle cx="423" cy="422" r="374" fill="#231F20"/>
<path d="M273.981 612.623C274.822 611.36 275.936 609.394 277.205 606.681C278.202 604.67 278.829 602.92 279.084 601.429C278.834 601.17 278.524 600.861 278.034 600.455L264.197 620.813C264.676 621.106 265.144 621.288 265.439 621.43C266.719 620.634 268.073 619.435 269.61 617.769C271.664 615.603 273.134 613.83 273.981 612.623Z" fill="#12B5E5"/>
<path d="M201.867 553.132L198.237 555.332L198.497 555.703L201.867 553.132Z" fill="#12B5E5"/>
<path d="M356.201 635.352L350.65 659.279C351.219 659.339 351.677 659.409 352.013 659.377C352.915 658.165 353.781 656.561 354.599 654.454C355.696 651.701 356.398 649.548 356.765 648.047C357.082 646.607 357.376 644.324 357.664 641.364C357.852 639.146 357.792 637.29 357.539 635.791C357.193 635.71 356.781 635.523 356.201 635.352Z" fill="#12B5E5"/>
<path d="M439.501 640.043C439.16 640.018 438.707 640.004 438.143 640L440.794 659.946C442.5 658.885 443.957 657.564 443.872 656.049L443.084 650.031C442.383 646.147 441.226 642.815 439.501 640.043Z" fill="#12B5E5"/>
<path d="M530.929 652.041C531.975 653.579 532.995 654.838 533.978 655.705C533.797 654.368 533.427 652.823 532.813 651.075C531.814 648.235 530.704 645.406 529.487 642.642L522.636 629.067C521.15 626.442 519.496 623.832 517.797 621.34C516.751 619.802 515.731 618.543 514.747 617.676C514.929 619.013 515.298 620.558 515.913 622.306C516.911 625.146 518.021 627.975 519.238 630.738L526.09 644.313C527.632 646.933 529.229 649.548 530.929 652.041Z" fill="#12B5E5"/>
<path d="M442.122 158.08L441.384 162.266L441.786 162.342L442.122 158.08Z" fill="#12B5E5"/>
<path d="M171.276 337.804L167.115 336.726L171.145 338.211L171.276 337.804Z" fill="#12B5E5"/>
<path d="M275.544 170.695C275.699 171.752 276.119 173.236 277.223 175.389C277.687 176.136 278.35 176.582 279.331 176.828C279.449 176.874 279.901 176.888 280.964 176.789C279.639 175.897 278.396 174.659 277.344 173.065C277.283 173.015 277.273 172.903 277.212 172.852C276.339 171.354 275.783 170.842 275.544 170.695Z" fill="#12B5E5"/>
<path d="M293.166 207.802C293.232 207.909 293.293 207.959 293.304 208.071C293.712 208.823 294.36 209.721 295.129 210.101C295.065 208.809 294.522 207.224 293.623 205.447C293.158 204.7 292.44 204.26 291.514 204.008C291.341 203.967 290.827 203.903 289.267 204.105C290.692 204.874 291.997 206.163 293.166 207.802Z" fill="#12B5E5"/>
<path d="M685.18 388.323C684.763 388.08 683.404 387.417 679.33 387.289C675.369 387.151 672.547 387.133 670.981 387.279L655.694 388.48C654.072 388.632 651.292 389.06 647.414 389.817C643.48 390.579 642.15 391.437 641.841 391.747C641.654 392.16 641.584 392.618 641.524 393.187L685.758 389.679C685.599 389.186 685.441 388.693 685.18 388.323Z" fill="#12B5E5"/>
<path d="M779.559 375.734C774.903 325.853 760.602 278.396 737.117 234.672C714.388 192.401 684.085 155.406 646.973 124.631C609.861 93.8561 567.897 70.9232 522.15 56.4097C474.835 41.422 425.551 36.151 375.67 40.8069C325.79 45.4628 278.332 59.7638 234.609 83.2491C192.338 105.978 155.343 136.281 124.568 173.393C93.7926 210.505 70.8597 252.469 56.3462 298.216C41.3585 345.531 36.0874 394.815 40.7433 444.696C45.3993 494.576 59.7003 542.034 83.1856 585.757C105.915 628.028 136.218 665.023 173.33 695.798C210.441 726.574 252.406 749.506 298.153 764.02C345.467 779.008 394.807 784.273 444.632 779.623C494.457 774.972 541.97 760.666 585.694 737.181C627.965 714.451 664.96 684.148 695.735 647.037C726.51 609.925 749.443 567.961 763.956 522.213C779 474.894 784.215 425.615 779.559 375.734ZM619.385 188.634C623.066 188.798 626.33 190.524 629.002 193.772L636.315 202.622C638.926 205.819 639.982 209.274 639.477 212.931C638.962 216.477 637.373 219.389 634.805 221.49L621.555 232.429C625.498 231.158 630.678 228.644 637.531 224.112C639.785 222.266 642.747 221.369 646.245 221.381C650.028 221.423 653.414 223.25 656.464 226.914L663.267 235.135C665.939 238.383 667 241.894 666.495 245.551C665.98 249.097 664.39 252.009 661.823 254.11C661.772 254.171 661.716 254.176 661.665 254.238C653.838 259.819 645.976 263.825 638.345 266.06C631.648 268.039 625.223 269.315 619.235 269.818C618.462 274.233 616.274 279.796 612.635 286.736C608.322 294.922 603.675 301.335 598.794 305.852C596.77 307.733 594.388 308.802 591.592 309.063C590.921 309.126 590.245 309.132 589.563 309.083C585.881 308.919 582.679 307.244 580.134 304.153L572.755 295.196C570.022 291.898 569.022 288.438 569.755 284.815C570.408 281.539 571.841 278.754 573.94 276.471C573.991 276.41 574.098 276.344 574.148 276.283C580.359 270.908 583.015 267.332 584.108 265.143L582.154 264.762L571.782 273.288C569.291 275.608 566.176 276.688 562.55 276.519C558.869 276.355 555.605 274.629 552.933 271.381L545.493 262.374C542.948 259.283 541.892 255.828 542.453 252.166C542.968 248.62 544.507 245.769 547.019 243.673L610.071 191.59C612.69 189.428 615.815 188.459 619.385 188.634ZM492.969 177.081L501.07 162.336C501.07 162.336 501.064 162.28 501.12 162.275C504.427 156.607 508.609 151.253 513.565 146.335C518.729 141.227 524.726 137.791 531.505 136.086C538.39 134.315 545.521 135.173 552.663 138.567C552.719 138.562 552.781 138.613 552.786 138.669L566.456 146.136C566.512 146.131 566.518 146.186 566.573 146.181C571.238 149.017 574.927 152.283 577.636 155.922C580.467 159.663 582.033 163.747 582.435 168.053C582.776 172.308 581.715 177.259 579.191 182.853C579.14 182.914 579.145 182.97 579.095 183.031L575.045 190.404C574.994 190.465 574.948 190.582 574.898 190.643C571.467 195.589 566.864 197.034 561.921 194.844C561.86 194.793 561.804 194.798 561.743 194.748L545.155 185.635C545.094 185.584 545.033 185.534 544.977 185.539C540.352 182.53 539.121 177.793 541.426 172.276C541.471 172.159 541.517 172.042 541.618 171.92C541.958 171.324 542.251 170.845 542.439 170.433C541.505 171.31 540.481 172.421 539.487 173.867C537.683 176.292 536.001 178.818 534.38 181.395L527.105 194.709C525.78 197.428 524.576 200.247 523.485 203.057C522.848 204.696 522.419 206.146 522.199 207.407C522.447 207.046 522.685 206.572 523.019 205.921C523.064 205.804 523.166 205.681 523.211 205.564C526.642 200.619 531.301 199.168 536.305 201.409C536.366 201.46 536.422 201.454 536.483 201.505L553.071 210.618C553.132 210.668 553.193 210.719 553.249 210.714C557.757 213.678 558.988 218.414 556.683 223.931C556.637 224.048 556.587 224.109 556.541 224.226L552.491 231.599C552.44 231.66 552.446 231.716 552.395 231.777C549.092 236.88 545.48 240.489 541.717 242.476C539.082 243.85 536.282 244.675 533.262 244.957C531.864 245.088 530.4 245.112 528.92 244.968C524.434 244.653 519.621 243.241 514.718 240.878C514.662 240.883 514.657 240.828 514.601 240.833L500.931 233.366C500.869 233.315 500.814 233.32 500.808 233.264C494.102 229.096 489.578 223.539 487.309 216.756C485.112 210.136 484.749 203.232 486.288 196.15C487.736 189.302 490.014 182.885 493.025 177.076C492.913 177.086 492.969 177.081 492.969 177.081ZM280.144 492.521C279.426 492.08 278.905 491.339 278.827 490.5C278.693 489.666 279.006 488.791 279.569 488.174L314.866 451.769C315.896 450.714 317.578 450.613 318.684 451.581L357.489 484.173C357.672 484.325 357.861 484.533 357.993 484.746C358.259 485.173 358.793 485.461 359.302 485.47C359.754 485.484 360.191 485.331 360.501 485.02L474.857 284.592C475.247 283.935 475.826 283.486 476.593 283.245C477.31 283.065 478.108 283.16 478.765 283.55L539.376 319.521C540.094 319.962 540.609 320.647 540.688 321.486C540.822 322.319 540.559 323.134 540.058 323.801L534.961 329.635L547.325 336.999L362.205 548.601L290.969 505.161L294.677 501.374L280.144 492.521ZM407.602 133.324C410.133 122.37 414.589 114.509 420.833 110.09C427.071 105.616 435.218 104.065 444.989 105.41L452.812 106.428C462.568 107.605 470.01 111.197 474.957 117.053C479.847 122.914 482.182 131.608 481.878 142.862C481.884 142.918 481.889 142.974 481.894 143.03L476.679 205C476.484 208.346 474.955 211.31 472.129 213.66C470.145 215.369 467.808 216.32 465.18 216.565C464.061 216.67 462.877 216.667 461.62 216.503L450.089 215.041C446.092 214.511 442.991 212.714 440.904 209.693C438.883 206.78 438.021 203.588 438.445 200.277L439.493 189.744L436.807 189.374L435.19 199.848C434.766 203.159 433.171 206.015 430.456 208.356C427.635 210.763 424.169 211.707 420.177 211.233L408.646 209.771C404.48 209.257 401.318 207.409 399.175 204.394C397.088 201.373 396.338 198.172 396.981 194.784L407.567 133.553C407.607 133.38 407.607 133.38 407.602 133.324ZM314.041 120.227C315.332 117.738 317.428 116.019 320.177 115.255C320.233 115.25 320.344 115.239 320.395 115.178L380.596 103.241C380.651 103.236 380.763 103.226 380.819 103.22C383.61 102.903 386.22 103.675 388.365 105.506C390.444 107.229 391.726 109.479 392.256 112.137L394.176 121.829C394.706 124.487 394.326 127.061 393.081 129.433C391.79 131.923 389.638 133.647 386.951 134.462C386.895 134.467 386.783 134.477 386.732 134.539L375.658 136.757L388.041 198.721C388.669 201.821 388.061 204.98 386.208 208.086C384.303 211.254 381.334 213.279 377.4 214.041L365.772 216.368C365.218 216.476 364.664 216.584 364.104 216.636C360.805 216.944 357.854 216.148 355.307 214.242C352.398 212.088 350.628 209.433 350.056 206.328L337.657 144.196L326.582 146.414C326.526 146.419 326.415 146.43 326.359 146.435C323.568 146.752 320.957 145.98 318.756 144.155C316.678 142.431 315.396 140.182 314.866 137.524L312.946 127.832C312.472 125.168 312.796 122.6 314.041 120.227ZM240.451 160.941C242.973 154.726 247.095 149.942 252.61 146.776L268.915 137.752C268.971 137.746 268.966 137.69 269.022 137.685C273.984 135.248 278.816 133.838 283.295 133.476C287.941 133.099 292.306 133.932 296.104 135.947C299.897 137.906 303.506 141.517 306.859 146.619C306.92 146.67 306.925 146.726 306.986 146.777L311.057 154.125C311.123 154.231 311.128 154.287 311.195 154.394C313.516 159.931 312.262 164.617 307.698 167.694C307.647 167.755 307.591 167.76 307.485 167.827L297.186 173.526C303.621 172.361 308.853 172.211 313.177 173.218C318.763 174.445 323.573 178.227 327.538 184.456C327.544 184.512 327.605 184.563 327.61 184.619C329.918 188.803 331.604 194.174 332.601 200.624C333.619 207.298 332.923 213.737 330.446 219.834C327.923 226.049 323.857 230.828 318.393 233.933L301.869 243.034C301.813 243.039 301.819 243.095 301.763 243.1C297.014 245.405 292.461 246.789 288.1 247.196C287.932 247.212 287.764 247.227 287.596 247.243C282.95 247.62 278.585 246.787 274.787 244.772C270.994 242.813 267.385 239.202 264.032 234.1C263.971 234.049 263.966 233.993 263.905 233.942L259.834 226.595C259.768 226.488 259.763 226.432 259.696 226.325C257.375 220.789 258.629 216.102 263.193 213.025C263.244 212.964 263.3 212.959 263.406 212.893L273.705 207.193C267.27 208.358 262.038 208.508 257.714 207.501C252.122 206.218 247.313 202.436 243.459 196.196C243.459 196.196 243.454 196.141 243.398 196.146C240.983 192.028 239.292 186.601 238.295 180.151C237.221 173.483 237.974 167.038 240.451 160.941ZM153.518 240.015L160.737 230.937C163.657 227.167 167.827 225.311 172.816 225.579C172.989 225.619 173.213 225.598 173.391 225.694L186.121 229.132L181.796 225.7C179.177 223.631 177.554 220.737 176.945 217.24C176.321 213.575 177.299 210.156 179.824 206.987L187.043 197.909C189.517 194.801 192.736 193.034 196.594 192.674C196.65 192.669 196.706 192.663 196.762 192.658C200.138 192.569 203.11 193.589 205.724 195.601L269.64 246.437C272.259 248.505 273.882 251.4 274.491 254.897C275.115 258.561 274.137 261.981 271.612 265.149L264.393 274.228C261.474 277.998 257.304 279.854 252.315 279.586C252.142 279.546 251.918 279.567 251.74 279.47L239.009 276.033L243.335 279.465C245.953 281.533 247.577 284.428 248.186 287.925C248.81 291.589 247.831 295.009 245.307 298.178L238.088 307.256C235.665 310.303 232.664 311.993 229.141 312.322C229.029 312.332 228.861 312.348 228.749 312.358C225.16 312.58 222.026 311.632 219.407 309.564L155.496 258.784C152.877 256.715 151.253 253.821 150.645 250.324C150.077 246.654 151.05 243.179 153.518 240.015ZM115.568 325.348L117.853 317.802C120.581 308.353 125.365 301.589 131.996 297.698C138.572 293.813 147.57 292.917 158.604 295.102C158.66 295.097 158.721 295.147 158.777 295.142L219.089 310.383C222.375 311.148 225.045 313.155 226.913 316.253C228.843 319.4 229.187 323.091 227.982 327.096L224.622 338.24C223.462 342.127 221.18 344.879 217.828 346.432C214.588 347.976 211.344 348.279 208.154 347.335L197.912 344.568L197.14 347.179L207.211 350.526C210.401 351.469 212.964 353.542 214.827 356.584C216.757 359.732 217.147 363.305 215.987 367.193L212.627 378.337C211.421 382.341 209.094 385.21 205.742 386.764C204.229 387.469 202.689 387.895 201.179 388.036C199.39 388.203 197.62 387.973 195.925 387.341L137.268 366.869C137.212 366.874 137.151 366.824 137.095 366.829C126.707 362.496 119.691 356.834 116.344 349.982C112.875 343.03 112.667 334.757 115.568 325.348ZM126.52 462.016L116.631 462.432C113.936 462.57 111.438 461.788 109.258 460.187C106.96 458.54 105.612 456.183 105.234 453.342C105.229 453.286 105.219 453.174 105.213 453.118L102.706 391.812C102.701 391.756 102.69 391.644 102.685 391.588C102.816 388.756 103.995 386.277 106.08 384.446C108.115 382.677 110.507 381.72 113.207 381.637L123.096 381.222C125.791 381.083 128.289 381.866 130.469 383.467C132.767 385.114 134.115 387.47 134.493 390.312C134.498 390.368 134.508 390.479 134.513 390.535L135.003 401.827L198.216 399.199C201.419 399.069 204.397 400.145 207.153 402.482C210.027 404.865 211.514 408.111 211.717 412.097L212.203 423.953C212.355 428 211.087 431.334 208.454 433.949C205.867 436.447 203.003 437.786 199.799 437.916L136.587 440.544L137.077 451.836C137.082 451.892 137.092 452.004 137.097 452.06C136.967 454.893 135.788 457.372 133.703 459.202C131.825 460.844 129.656 461.78 127.196 462.009C126.911 461.98 126.687 462.001 126.52 462.016ZM183.726 612.586C182.719 612.68 181.646 612.668 180.502 612.492C176.844 611.988 173.784 610.017 171.375 606.575L164.783 596.981C162.497 593.641 161.776 590.154 162.622 586.522C163.427 583.062 165.256 580.297 168.013 578.403L176.565 572.134L175.004 569.91L166.125 575.703C163.368 577.596 160.161 578.29 156.621 577.831C152.964 577.326 149.909 575.412 147.623 572.071L141.03 562.477C138.677 559.03 137.891 555.437 138.742 551.86C139.592 548.284 141.488 545.625 144.422 543.828L197.077 510.879C197.133 510.873 197.184 510.812 197.24 510.807C207.111 505.373 215.903 503.481 223.392 505.151C230.881 506.821 237.498 511.844 242.999 520.017L247.5 526.535C253.158 534.581 255.481 542.543 254.33 550.153C253.229 557.701 248.295 565.269 239.724 572.556C239.674 572.617 239.618 572.622 239.623 572.678L189.984 610.141C188.142 611.554 186.074 612.367 183.726 612.586ZM273.912 656.006C273.358 656.114 272.743 656.172 272.184 656.224C265.753 656.824 259.287 655.228 253.074 651.521C253.013 651.47 252.957 651.475 252.952 651.42L246.448 647.006L242.628 652.609C240.865 655.481 238.226 657.42 234.694 658.257C231.111 659.155 227.601 658.411 224.234 656.187L214.598 649.641C211.104 647.259 209.129 644.229 208.617 640.554C208.115 636.99 208.829 633.765 210.714 630.994L253.321 568.354L253.372 568.293C256.423 564.116 260.164 561.285 264.37 559.82C268.856 558.33 272.65 558.483 275.527 560.302L275.589 560.352L302.394 578.608C302.455 578.659 302.455 578.659 302.516 578.71C308.833 583.535 312.774 590.105 314.151 598.212C315.502 606.04 315.154 613.179 313.073 619.296C311.033 625.24 308.073 630.988 304.226 636.311C300.953 641.129 296.778 645.354 291.753 648.926C286.733 652.553 280.693 654.922 273.912 656.006ZM395.685 640.184C395.935 646.478 395.233 652.861 393.57 659.221C392.236 664.874 389.875 670.396 386.516 675.504C383.056 680.735 378.277 685.13 372.336 688.561C366.182 692.125 359.066 693.24 351.267 691.881C351.211 691.886 351.15 691.836 351.094 691.841L343.483 690.069L341.953 696.643C341.361 699.969 339.588 702.73 336.563 704.761C334.761 706.001 332.8 706.748 330.675 706.946C329.221 707.082 327.685 706.943 326.072 706.586L314.717 703.98C310.621 703.008 307.662 700.915 305.833 697.645C304.072 694.481 303.601 691.254 304.315 688.028L321.4 614.232C321.395 614.176 321.395 614.176 321.446 614.115C322.781 609.083 325.233 605.131 328.632 602.276C332.296 599.226 335.853 598.048 339.241 598.691C339.297 598.686 339.297 598.686 339.353 598.68L370.947 605.997C371.003 605.992 371.064 606.043 371.12 606.038C378.773 608.256 384.799 612.996 389.006 619.993C393.208 626.934 395.415 633.666 395.685 640.184ZM486.197 706.419C484.114 709.49 481.012 711.302 476.996 711.79L465.462 713.318C461.228 713.882 457.748 712.853 455.087 710.338C452.671 708.025 451.013 705.359 450.227 702.387C448.638 696.838 447.158 692.463 445.854 689.37L444.782 689.978L446.399 702.462C447.047 705.786 446.272 708.961 444.24 711.971C442.158 715.042 439.055 716.854 435.04 717.342L423.506 718.87C423.282 718.891 423.059 718.912 422.835 718.933C418.976 719.293 415.669 718.304 412.979 716.073C410.222 713.736 408.659 710.892 408.178 707.552L398.29 632.438C398.285 632.383 398.285 632.383 398.28 632.327C397.8 627.182 398.668 622.588 400.846 618.719C403.225 614.604 406.103 612.192 409.493 611.65C409.549 611.645 409.549 611.645 409.605 611.64L441.756 607.398C441.812 607.393 441.868 607.387 441.924 607.382C449.88 606.809 457.141 609.064 463.601 614.215C469.873 619.157 474.284 624.725 476.816 630.693C479.275 636.499 480.872 642.724 481.544 649.317C482.569 659.093 480.88 666.979 476.404 672.811C481.926 679.403 485.948 687.433 488.278 696.691C488.284 696.747 488.289 696.803 488.294 696.859C488.999 700.178 488.228 703.409 486.197 706.419ZM568.397 666.086C565.916 672.748 561.175 678.154 554.325 682.122C554.269 682.127 554.219 682.188 554.163 682.193L543.117 687.737C543.061 687.742 543.01 687.803 542.954 687.809C539.429 689.322 535.963 690.266 532.496 690.59C528.861 690.929 525.22 690.592 521.739 689.563C515.074 687.647 509.146 683.97 504.201 678.734C499.384 673.656 495.374 668.164 492.294 662.359L492.289 662.303L484.737 647.271L484.732 647.215C481.921 641.272 479.902 634.748 478.645 627.928C477.361 620.827 477.955 613.89 480.39 607.345C482.871 600.683 487.612 595.277 494.462 591.31C494.517 591.304 494.568 591.243 494.624 591.238L505.67 585.694C505.726 585.689 505.777 585.628 505.833 585.623C513.096 582.463 520.265 581.907 527.047 583.868C533.713 585.784 539.641 589.462 544.585 594.697C549.403 599.775 553.413 605.268 556.493 611.072L556.498 611.128L564.05 626.161L564.055 626.217C566.866 632.159 568.885 638.683 570.142 645.504C571.43 652.66 570.832 659.541 568.397 666.086ZM650.361 591.198C650.721 599.287 647.541 606.917 640.922 613.965L635.963 619.448C629.949 626.327 622.982 630.249 615.377 630.959C614.985 630.996 614.65 631.027 614.258 631.063C606.286 631.469 597.089 627.815 586.84 620.141C586.784 620.147 586.779 620.091 586.718 620.04L541.277 582.822C538.653 580.698 537.085 577.798 536.741 574.107C536.396 570.417 537.598 566.977 540.413 563.893L548.238 555.266C550.951 552.305 554.191 550.762 557.913 550.753C561.468 550.76 564.562 551.881 567.023 554.077L594.837 577.089L569.219 551.615C566.753 549.364 565.352 546.448 565.018 542.87C564.674 539.179 565.825 535.8 568.538 532.839L576.363 524.212C579.178 521.128 582.469 519.524 586.191 519.515C589.857 519.511 592.906 520.75 595.281 523.235L636.731 564.831C636.736 564.887 636.792 564.881 636.797 564.937C645.47 574.45 650.016 583.277 650.361 591.198ZM711.487 482.211C711.492 482.267 711.441 482.328 711.396 482.445L691.99 536.207C691.99 536.207 691.995 536.263 691.939 536.269C690.655 539.434 687.717 541.796 683.169 543.235C681.853 543.64 680.471 543.939 679.073 544.069C675.997 544.356 672.686 543.932 669.317 542.893C669.262 542.898 669.262 542.898 669.2 542.847L603.529 519.138C603.473 519.143 603.468 519.087 603.412 519.092C598.607 517.171 594.899 514.302 592.515 510.52C589.943 506.529 589.146 502.825 590.195 499.568C590.195 499.568 590.19 499.512 590.246 499.507L609.652 445.744C609.703 445.683 609.698 445.627 609.743 445.51C610.911 442.919 612.941 441.094 615.624 440.223C618.194 439.363 620.793 439.402 623.302 440.296L632.641 443.655C635.205 444.544 637.167 446.222 638.622 448.512C640.087 450.913 640.51 453.638 639.749 456.36C639.754 456.416 639.704 456.477 639.658 456.594L628.586 487.241L636.815 490.196L645.417 466.323C645.468 466.261 645.463 466.205 645.508 466.088C646.677 463.497 648.706 461.672 651.389 460.801C653.96 459.941 656.558 459.98 659.067 460.874L663.734 462.526C666.299 463.415 668.26 465.093 669.715 467.383C671.18 469.784 671.604 472.509 670.842 475.231C670.848 475.287 670.797 475.348 670.751 475.465L662.15 499.338L670.379 502.293L681.451 471.646C681.501 471.585 681.496 471.529 681.542 471.412C682.71 468.821 684.74 466.995 687.422 466.125C689.993 465.264 692.536 465.309 695.1 466.198L704.439 469.556C707.004 470.445 708.966 472.124 710.42 474.413C711.88 476.759 712.248 479.489 711.487 482.211ZM719.401 411.696C719.407 411.752 719.407 411.752 719.412 411.808C719.562 415.235 717.847 418.61 714.305 421.761C710.972 424.723 706.685 426.534 701.494 427.131L701.438 427.136C701.438 427.136 701.439 427.136 701.383 427.141L631.78 432.623C631.724 432.628 631.724 432.628 631.668 432.633C626.497 432.834 621.939 431.736 618.216 429.32C614.198 426.762 611.994 423.696 611.62 420.29C611.614 420.234 611.614 420.234 611.609 420.178L609.16 389.101C609.154 389.045 609.154 389.045 609.149 388.989C608.773 380.732 610.871 373.598 615.347 367.765C619.722 362.055 625.417 357.8 632.168 355.196C638.701 352.668 645.317 351.035 651.855 350.369L651.911 350.364L668.707 349.021L668.763 349.016C675.332 348.685 682.096 349.238 688.944 350.686C696.026 352.225 702.252 355.479 707.512 360.46C712.838 365.547 716.057 372.241 716.936 380.451C716.941 380.507 716.941 380.507 716.947 380.563L719.401 411.696Z" fill="#12B5E5"/>
<path d="M742.058 232.011C718.987 189.095 688.235 151.522 650.573 120.29C612.911 89.0589 570.295 65.792 523.906 51.0563C475.834 35.8009 425.756 30.4911 375.148 35.2149C324.541 39.9386 276.311 54.4246 231.948 78.308C189.032 101.379 151.458 132.131 120.227 169.793C88.9954 207.455 65.7284 250.071 50.998 296.516C35.7426 344.588 30.4276 394.61 35.1513 445.218C39.8751 495.825 54.361 544.055 78.2445 588.418C101.316 631.334 132.068 668.908 169.73 700.139C207.392 731.371 250.008 754.638 296.452 769.368C344.525 784.624 394.547 789.939 445.154 785.215C495.762 780.491 543.992 766.005 588.355 742.122C631.271 719.05 668.844 688.298 700.076 650.636C731.307 612.974 754.574 570.358 769.305 523.914C784.56 475.841 789.875 425.82 785.151 375.212C780.427 324.604 765.947 276.43 742.058 232.011ZM585.75 737.175C542.026 760.661 494.513 774.967 444.688 779.618C394.863 784.268 345.523 779.002 298.209 764.015C252.461 749.501 210.497 726.568 173.386 695.793C136.274 665.018 105.971 628.023 83.2415 585.752C59.7003 542.034 45.3993 494.576 40.7433 444.696C36.0874 394.815 41.3585 345.531 56.3462 298.216C70.8597 252.469 93.7926 210.505 124.568 173.393C155.343 136.281 192.338 105.978 234.609 83.2491C278.332 59.7638 325.79 45.4628 375.67 40.8069C425.551 36.151 474.835 41.422 522.15 56.4097C567.897 70.9232 609.861 93.8561 646.973 124.631C684.085 155.406 714.388 192.401 737.117 234.672C760.602 278.396 774.909 325.909 779.559 375.734C784.21 425.559 778.944 474.899 763.956 522.213C749.443 567.961 726.51 609.925 695.735 647.037C665.016 684.143 627.97 714.507 585.75 737.175Z" fill="#231F20"/>
<path d="M248.78 549.317C249.676 543.198 247.707 536.613 242.891 529.729L238.39 523.211C233.68 516.262 228.265 512.029 222.216 510.676C216.167 509.322 208.711 511.034 200.068 515.732L147.414 548.682C145.758 549.682 144.765 551.129 144.226 553.21C143.738 555.23 144.211 557.273 145.706 559.389L152.298 568.984C153.666 570.943 155.351 572.083 157.406 572.343C159.578 572.648 161.403 572.252 162.992 571.144C162.992 571.144 163.048 571.139 163.042 571.083L174.267 563.831C174.638 563.57 175.075 563.417 175.522 563.375C176.529 563.281 177.526 563.696 178.118 564.599L182.752 571.331C183.604 572.605 183.308 574.268 182.095 575.171L171.268 583.063C171.268 583.063 171.212 583.069 171.217 583.125C169.628 584.232 168.59 585.795 168.112 587.927C167.623 589.947 168.086 591.878 169.402 593.899L175.995 603.493C177.434 605.615 179.176 606.75 181.236 607.065C183.347 607.319 185.059 606.934 186.531 605.781L236.114 568.324C243.634 561.868 247.89 555.492 248.78 549.317ZM224.301 540.264C224.117 541.917 223.022 543.486 220.987 545.255C219.475 546.581 217.379 548.299 214.806 550.345L214.756 550.406L199.529 561.924C199.108 562.245 198.62 562.46 198.117 562.507C197.893 562.528 197.664 562.493 197.379 562.463C196.637 562.363 195.975 561.917 195.521 561.283L191.934 556.09C191.479 555.455 191.35 554.678 191.506 553.93C191.662 553.182 192.108 552.52 192.804 552.116L209.076 542.136L209.132 542.131C212.072 540.39 214.322 539.108 215.982 538.164C218.394 536.81 220.386 536.399 222.126 536.913C222.707 537.085 223.252 537.485 223.583 538.018L223.849 538.445C224.175 538.922 224.355 539.639 224.301 540.264Z" fill="#FCBA28"/>
<path d="M239.78 572.551C248.351 565.264 253.285 557.696 254.386 550.148C255.481 542.543 253.158 534.581 247.556 526.53L243.055 520.012C237.554 511.839 230.942 506.872 223.448 505.146C215.959 503.475 207.167 505.368 197.296 510.802C197.24 510.807 197.189 510.868 197.133 510.873L144.478 543.823C141.538 545.564 139.648 548.278 138.797 551.855C137.947 555.432 138.733 559.025 141.086 562.472L147.678 572.066C149.965 575.406 152.964 577.326 156.677 577.826C160.217 578.285 163.424 577.591 166.181 575.698L175.06 569.905L176.621 572.128L168.068 578.398C165.312 580.291 163.534 582.996 162.678 586.516C161.827 590.093 162.553 593.635 164.839 596.976L171.431 606.57C173.784 610.017 176.906 612.038 180.558 612.487C181.641 612.612 182.719 612.68 183.782 612.581C186.13 612.362 188.198 611.548 190.035 610.079L239.674 572.617C239.674 572.617 239.724 572.556 239.78 572.551ZM181.226 606.953C179.171 606.694 177.48 605.498 175.985 603.381L169.392 593.787C168.025 591.827 167.613 589.835 168.101 587.815C168.579 585.684 169.618 584.12 171.207 583.013C171.207 583.013 171.263 583.008 171.257 582.952L182.084 575.059C183.297 574.156 183.588 572.437 182.741 571.219L178.108 564.488C177.521 563.64 176.518 563.169 175.512 563.263C175.064 563.305 174.627 563.459 174.257 563.719L163.032 570.971C163.032 570.971 162.976 570.977 162.981 571.033C161.392 572.14 159.568 572.536 157.396 572.231C155.341 571.971 153.66 570.887 152.288 568.872L145.695 559.277C144.256 557.156 143.783 555.113 144.216 553.098C144.699 551.022 145.748 549.571 147.403 548.57L200.058 515.621C208.701 510.922 216.1 509.216 222.205 510.564C228.254 511.917 233.726 516.145 238.38 523.099L242.88 529.617C247.692 536.445 249.665 543.086 248.77 549.205C247.88 555.38 243.619 561.701 236.149 568.095L186.566 605.552C185.105 606.817 183.342 607.263 181.226 606.953Z" fill="#231F20"/>
<path d="M223.522 537.968C223.19 537.435 222.651 537.09 222.065 536.863C220.381 536.343 218.389 536.755 215.921 538.113C214.26 539.058 212.011 540.339 209.071 542.08L209.015 542.086L192.742 552.066C192.103 552.464 191.601 553.131 191.445 553.879C191.289 554.627 191.418 555.404 191.872 556.039L195.46 561.232C195.914 561.867 196.576 562.312 197.318 562.412C197.547 562.447 197.776 562.482 198.056 562.456C198.559 562.409 199.047 562.195 199.468 561.873L214.694 550.355L214.745 550.294C217.318 548.249 219.358 546.535 220.926 545.204C223.017 543.43 224.05 541.81 224.24 540.213C224.345 539.527 224.17 538.866 223.777 538.282L223.522 537.968ZM201.867 553.132L198.441 555.708L198.186 555.393L201.867 553.132Z" fill="#231F20"/>
<path d="M288.62 644.367C293.062 641.189 296.825 637.397 299.754 633.118L299.805 633.057C303.352 628.157 306.075 622.883 307.882 617.468C309.65 612.227 309.919 606.053 308.769 599.166C307.578 592.452 304.494 587.212 299.268 583.187L272.529 565.038C271.149 564.151 269.008 564.182 266.163 565.124C263.043 566.149 260.313 568.322 257.961 571.531L215.405 634.11C214.316 635.735 213.918 637.52 214.234 639.691C214.539 641.749 215.712 643.445 217.821 644.884L227.457 651.43C229.443 652.768 231.402 653.205 233.445 652.733C235.488 652.26 236.97 651.219 237.948 649.605C237.998 649.544 237.993 649.488 238.049 649.483L243.45 641.476C244.347 640.208 246.065 639.879 247.328 640.72L256.063 646.673C261.74 650.092 267.321 651.263 273.106 650.384C279.007 649.552 284.229 647.485 288.62 644.367ZM267.085 626.973C266.76 627.117 266.429 627.204 266.094 627.235C265.87 627.256 265.641 627.221 265.412 627.186C263.408 626.865 261.158 625.722 258.606 623.76C257.449 622.853 257.181 621.185 258.027 619.978L274.986 594.986C275.832 593.779 277.489 593.399 278.741 594.128C281.547 595.784 283.392 597.417 284.403 599.184C284.673 599.666 284.843 600.271 284.783 600.841C284.611 603.226 283.788 605.897 282.22 609.033C280.803 611.986 279.598 614.186 278.549 615.637C277.561 617.14 275.989 619.035 273.732 621.445C271.395 624.202 269.243 625.926 267.085 626.973Z" fill="#FCBA28"/>
<path d="M304.338 636.301C308.179 630.922 311.145 625.23 313.185 619.286C315.265 613.169 315.62 606.085 314.263 598.202C312.83 590.1 308.945 583.525 302.628 578.699C302.567 578.649 302.567 578.648 302.506 578.598L275.7 560.342L275.639 560.291C272.762 558.473 268.963 558.263 264.482 559.81C260.27 561.218 256.53 564.049 253.484 568.282L253.433 568.343L210.826 630.984C208.941 633.754 208.227 636.98 208.729 640.543C209.241 644.218 211.272 647.244 214.71 649.63L224.346 656.177C227.662 658.462 231.223 659.145 234.806 658.246C238.338 657.409 240.977 655.471 242.74 652.598L246.56 646.996L253.064 651.409C253.125 651.46 253.125 651.46 253.186 651.511C259.404 655.274 265.809 656.819 272.296 656.214C272.855 656.161 273.47 656.104 274.024 655.996C280.81 654.968 286.85 652.599 291.977 648.905C296.834 645.349 301.065 641.119 304.338 636.301ZM256.012 646.734L247.277 640.781C246.009 639.884 244.235 640.218 243.399 641.537L237.998 649.544C237.948 649.605 237.953 649.661 237.897 649.666C236.919 651.28 235.493 652.316 233.394 652.794C231.351 653.267 229.454 652.88 227.406 651.491L217.77 644.945C215.661 643.506 214.488 641.811 214.183 639.752C213.868 637.582 214.26 635.74 215.354 634.171L257.91 571.592C260.262 568.383 263.048 566.205 266.112 565.185C268.901 564.248 271.042 564.218 272.478 565.099L299.161 583.253C304.388 587.278 307.466 592.462 308.662 599.232C309.874 606.17 309.599 612.288 307.776 617.535C305.913 622.954 303.19 628.229 299.698 633.124L299.647 633.185C296.719 637.463 293.011 641.25 288.513 644.434C284.123 647.551 278.9 649.618 273.004 650.507C267.271 651.324 261.74 650.092 256.012 646.734Z" fill="#231F20"/>
<path d="M278.615 615.744C279.603 614.241 280.813 612.098 282.286 609.14C283.793 605.953 284.672 603.277 284.849 600.947C284.909 600.378 284.74 599.773 284.469 599.291C283.402 597.529 281.557 595.896 278.808 594.235C277.55 593.45 275.893 593.83 275.052 595.093L258.093 620.085C257.247 621.292 257.516 622.959 258.672 623.867C261.224 625.828 263.475 626.972 265.479 627.293C265.708 627.328 265.936 627.363 266.16 627.342C266.496 627.31 266.826 627.223 267.151 627.08C269.254 626.038 271.456 624.253 273.865 621.659C276 619.147 277.627 617.246 278.615 615.744ZM264.202 620.869L278.04 600.511C278.468 600.866 278.834 601.17 279.089 601.485C278.829 602.919 278.202 604.67 277.211 606.737C275.936 609.394 274.827 611.416 273.986 612.679C273.145 613.942 271.669 615.659 269.676 617.876C268.14 619.542 266.785 620.74 265.506 621.537C265.149 621.344 264.737 621.157 264.202 620.869Z" fill="#231F20"/>
<path d="M369.658 611.533L338.181 604.261C336.574 603.96 334.562 604.768 332.314 606.67C329.802 608.766 327.994 611.755 326.946 615.632L309.856 689.373C309.413 691.275 309.697 693.11 310.78 695.04C311.796 696.863 313.482 698.003 316.021 698.612L327.376 701.219C329.742 701.787 331.683 701.437 333.379 700.263C335.125 699.029 336.118 697.582 336.449 695.69C336.444 695.634 336.495 695.573 336.49 695.517L338.658 686.12C339.026 684.619 340.519 683.69 342.014 684.002L352.276 686.372C358.813 687.51 364.424 686.592 369.512 683.691C374.707 680.724 378.862 676.896 381.826 672.389C384.84 667.82 386.979 662.939 388.142 657.867L388.136 657.811C389.678 651.97 390.315 646.1 390.062 640.37C389.83 634.864 387.874 629.011 384.264 622.974C380.787 617.15 375.983 613.424 369.658 611.533ZM363.238 641.859C362.982 645.154 362.647 647.611 362.245 649.341C361.842 651.071 361.049 653.457 359.867 656.501C358.593 659.778 357.186 662.223 355.542 663.955C355.132 664.389 354.649 664.659 354.095 664.767C353.765 664.855 353.373 664.891 353.038 664.922C351.249 665.089 349.077 664.784 346.522 664.008C345.072 663.579 344.26 662.132 344.577 660.692L351.365 631.291C351.682 629.851 353.119 628.927 354.548 629.132C357.758 629.679 360.094 630.532 361.678 631.795C362.106 632.149 362.489 632.621 362.653 633.17C363.33 635.589 363.535 638.39 363.238 641.859Z" fill="#FCBA28"/>
<path d="M371.186 606.144C371.13 606.149 371.069 606.099 371.013 606.104L339.419 598.787C339.363 598.792 339.363 598.792 339.307 598.797C335.919 598.155 332.363 599.333 328.699 602.382C325.243 605.243 322.853 609.246 321.512 614.222C321.517 614.278 321.517 614.278 321.467 614.339L304.382 688.135C303.617 691.421 304.143 694.644 305.9 697.752C307.723 700.966 310.687 703.115 314.783 704.086L326.138 706.693C327.751 707.05 329.287 707.188 330.741 707.053C332.866 706.854 334.827 706.107 336.629 704.867C339.594 702.786 341.428 700.076 342.02 696.749L343.55 690.176L351.161 691.948C351.217 691.942 351.278 691.993 351.334 691.988C359.132 693.347 366.192 692.237 372.402 688.667C378.399 685.231 383.178 680.836 386.583 675.611C389.942 670.503 392.303 664.98 393.637 659.328C395.299 652.968 395.996 646.529 395.752 640.29C395.487 633.828 393.279 627.096 389.144 620.262C384.861 613.047 378.839 608.363 371.186 606.144ZM390.123 640.421C390.376 646.151 389.739 652.02 388.197 657.861L388.203 657.917C387.035 662.934 384.896 667.815 381.887 672.439C378.923 676.947 374.819 680.714 369.573 683.742C364.485 686.642 358.869 687.505 352.337 686.423L342.076 684.052C340.575 683.685 339.026 684.619 338.72 686.171L336.551 695.568C336.556 695.623 336.505 695.685 336.51 695.74C336.174 697.577 335.186 699.079 333.44 700.314C331.745 701.488 329.747 701.843 327.437 701.269L316.082 698.663C313.548 698.109 311.857 696.913 310.841 695.09C309.758 693.161 309.474 691.326 309.917 689.423L327.007 615.683C328.055 611.806 329.863 608.817 332.375 606.721C334.623 604.819 336.635 604.011 338.243 604.312L369.72 611.583C376.039 613.419 380.793 617.206 384.325 623.025C387.93 629.006 389.886 634.859 390.123 640.421Z" fill="#231F20"/>
<path d="M361.689 631.906C360.104 630.644 357.763 629.734 354.559 629.244C353.068 628.988 351.687 629.907 351.376 631.402L344.587 660.804C344.27 662.244 345.082 663.691 346.533 664.119C349.087 664.896 351.259 665.201 353.048 665.034C353.44 664.998 353.775 664.966 354.106 664.879C354.66 664.771 355.193 664.439 355.553 664.067C357.14 662.34 358.548 659.896 359.877 656.613C361.055 653.513 361.852 651.182 362.255 649.453C362.658 647.723 362.992 645.266 363.249 641.97C363.54 638.446 363.335 635.645 362.674 633.394C362.499 632.733 362.173 632.256 361.689 631.906ZM357.669 641.42C357.438 644.374 357.143 646.658 356.77 648.103C356.453 649.543 355.696 651.701 354.604 654.51C353.786 656.617 352.92 658.221 352.018 659.433C351.677 659.409 351.169 659.4 350.655 659.335L356.206 635.408C356.73 635.584 357.198 635.766 357.493 635.908C357.797 637.346 357.857 639.202 357.669 641.42Z" fill="#231F20"/>
<path d="M482.815 697.991C480.49 688.788 476.378 680.993 470.663 674.757C469.658 673.667 469.669 671.973 470.699 670.918C475.218 666.153 476.981 659.051 476.013 649.89C475.393 643.856 473.9 638.129 471.716 632.861C469.548 627.761 465.661 622.991 460.175 618.596C454.815 614.358 449.004 612.531 442.502 612.969L410.462 617.2C408.851 617.464 407.294 618.906 405.79 621.529C404.195 624.385 403.557 627.829 403.928 631.799L413.811 706.858C414.044 708.754 414.989 710.414 416.645 711.839C418.24 713.213 420.26 713.701 422.821 713.349L434.355 711.822C436.749 711.485 438.466 710.535 439.656 708.788C440.847 707.042 441.25 705.312 440.91 703.482C440.904 703.426 440.899 703.37 440.894 703.314L438.978 688.827C438.812 687.658 439.384 686.533 440.405 685.986L445.772 683.06C446.417 682.718 447.195 682.589 447.892 682.806C448.589 683.023 449.195 683.474 449.599 684.169C451.493 687.546 453.474 693.058 455.736 700.97C456.265 703.008 457.332 704.77 459.003 706.362C460.425 707.696 462.333 708.195 464.783 707.853L476.317 706.325C478.711 705.989 480.427 705.039 481.618 703.292C482.748 701.495 483.15 699.765 482.815 697.991ZM440.876 666.256C440.607 666.394 440.332 666.476 440.053 666.502L438.828 666.673C438.772 666.678 438.772 666.678 438.716 666.684C437.206 666.825 435.866 665.765 435.669 664.26L432.199 637.96C432.007 636.511 433.006 635.121 434.444 634.817C437.6 634.184 440.087 634.234 442.061 634.84C442.641 635.011 443.186 635.412 443.518 635.945C445.998 639.549 447.712 644.014 448.589 649.178C448.594 649.234 448.594 649.234 448.599 649.29L449.397 655.421C449.402 655.476 449.408 655.532 449.413 655.588C449.759 659.899 446.879 663.496 440.876 666.256Z" fill="#FCBA28"/>
<path d="M488.278 696.691C485.948 687.433 481.982 679.398 476.404 672.811C480.874 666.923 482.564 659.037 481.544 649.317C480.872 642.724 479.275 636.499 476.816 630.693C474.284 624.725 469.822 619.218 463.601 614.215C457.147 609.12 449.88 606.809 441.924 607.382C441.868 607.387 441.812 607.393 441.756 607.398L409.605 611.64C409.549 611.645 409.549 611.645 409.493 611.65C406.103 612.192 403.17 614.61 400.846 618.719C398.612 622.594 397.744 627.187 398.28 632.327C398.285 632.383 398.285 632.383 398.29 632.438L408.178 707.552C408.604 710.897 410.222 713.736 412.979 716.073C415.618 718.365 418.92 719.298 422.835 718.933C423.059 718.912 423.282 718.891 423.506 718.87L435.04 717.342C439.05 716.798 442.153 714.986 444.24 711.971C446.272 708.961 447.047 705.786 446.399 702.462L444.782 689.978L445.854 689.37C447.214 692.458 448.694 696.833 450.227 702.387C451.013 705.359 452.677 708.081 455.087 710.338C457.748 712.853 461.284 713.877 465.462 713.318L476.996 711.79C481.007 711.246 484.109 709.434 486.197 706.419C488.284 703.403 488.999 700.178 488.345 696.798C488.284 696.747 488.284 696.747 488.278 696.691ZM476.25 706.219L464.717 707.747C462.211 708.093 460.303 707.595 458.937 706.256C457.265 704.663 456.203 702.957 455.67 700.863C453.408 692.952 451.432 687.495 449.532 684.063C449.19 683.418 448.579 682.911 447.826 682.699C447.129 682.482 446.346 682.555 445.706 682.953L440.338 685.88C439.318 686.426 438.746 687.552 438.911 688.721L440.828 703.208C440.833 703.264 440.838 703.32 440.843 703.375C441.183 705.205 440.781 706.935 439.59 708.682C438.394 710.373 436.683 711.379 434.289 711.715L422.755 713.243C420.193 713.595 418.173 713.106 416.578 711.732C414.922 710.307 413.983 708.703 413.744 706.751L403.862 631.693C403.491 627.722 404.128 624.279 405.723 621.422C407.176 618.861 408.734 617.418 410.396 617.094L442.435 612.862C448.993 612.419 454.805 614.246 460.108 618.489C465.59 622.829 469.481 627.655 471.649 632.755C473.889 638.017 475.327 643.749 475.946 649.783C476.92 659 475.152 666.047 470.633 670.812C469.603 671.867 469.592 673.56 470.596 674.651C476.362 680.825 480.423 688.681 482.749 697.884C483.089 699.714 482.686 701.444 481.49 703.135C480.361 704.933 478.65 705.938 476.25 706.219Z" fill="#231F20"/>
<path d="M448.599 649.29C448.594 649.234 448.594 649.234 448.589 649.178C447.712 644.014 446.054 639.544 443.518 635.945C443.186 635.412 442.646 635.067 442.061 634.84C440.087 634.234 437.605 634.24 434.444 634.817C433.006 635.121 432.002 636.456 432.199 637.96L435.664 664.205C435.861 665.709 437.201 666.769 438.711 666.628C438.766 666.623 438.766 666.623 438.822 666.617L440.047 666.447C440.327 666.42 440.601 666.338 440.871 666.2C446.874 663.44 449.81 659.838 449.464 655.527C449.458 655.471 449.453 655.415 449.448 655.359L448.599 649.29ZM440.794 659.946L438.143 640C438.702 639.948 439.155 639.962 439.501 640.043C441.17 642.82 442.383 646.147 443.033 650.092L443.821 656.11C443.901 657.569 442.5 658.885 440.794 659.946Z" fill="#231F20"/>
<path d="M563.139 664.151C565.216 658.599 565.674 652.633 564.597 646.529C563.438 640.15 561.582 634.175 558.981 628.664L551.435 613.688C548.569 608.371 544.876 603.244 540.43 598.526C536.174 594.016 531.086 590.881 525.403 589.211C519.78 587.593 514.127 588.064 508.057 590.717L497.173 596.19C491.446 599.488 487.673 603.789 485.647 609.28C483.571 614.833 483.112 620.798 484.19 626.902C485.293 633.286 487.204 639.256 489.806 644.767L497.352 659.744C500.223 665.117 503.911 670.187 508.357 674.906C512.613 679.416 517.7 682.551 523.384 684.22C529.007 685.839 534.66 685.368 540.73 682.714L551.613 677.242C557.336 673.887 561.108 669.587 563.139 664.151ZM539.637 657.715C539.608 658 539.578 658.284 539.487 658.518C538.724 660.62 537.146 661.839 535.244 662.017C534.517 662.085 533.775 661.985 532.966 661.778C532.676 661.693 532.442 661.602 532.197 661.399C530.211 660.061 528.274 658.042 526.309 655.123C524.543 652.524 522.818 649.752 521.204 646.969C521.199 646.913 521.138 646.863 521.138 646.863L514.22 633.181C514.215 633.125 514.154 633.074 514.154 633.074C512.866 630.149 511.684 627.156 510.67 624.149C509.513 620.816 509.028 618.041 509.144 615.661C509.174 615.376 509.204 615.091 509.295 614.857C510.381 611.992 512.859 610.745 515.816 611.597C516.106 611.683 516.34 611.774 516.584 611.977C518.571 613.314 520.508 615.333 522.473 618.252C524.238 620.852 525.963 623.624 527.577 626.406C527.582 626.462 527.643 626.513 527.643 626.513L534.561 640.195C534.566 640.251 534.628 640.301 534.628 640.301C535.916 643.227 537.098 646.219 538.112 649.227C539.269 652.56 539.754 655.335 539.637 657.715Z" fill="#FCBA28"/>
<path d="M564.111 626.211L564.105 626.155L556.554 611.123L556.549 611.067C553.413 605.268 549.459 599.77 544.641 594.692C539.696 589.456 533.769 585.779 527.103 583.863C520.259 581.851 513.096 582.463 505.889 585.618C505.833 585.623 505.782 585.684 505.726 585.689L494.68 591.233C494.624 591.238 494.573 591.299 494.518 591.304C487.668 595.272 482.926 600.678 480.446 607.34C478.011 613.885 477.468 620.761 478.701 627.922C479.907 634.804 481.977 641.267 484.788 647.21L484.793 647.266L492.345 662.298L492.35 662.354C495.486 668.153 499.44 673.651 504.257 678.729C509.202 683.965 515.13 687.642 521.795 689.558C525.332 690.582 528.917 690.924 532.552 690.585C536.019 690.261 539.485 689.317 543.01 687.803C543.066 687.798 543.117 687.737 543.172 687.732L554.219 682.188C554.274 682.183 554.325 682.122 554.381 682.117C561.231 678.149 565.977 672.799 568.453 666.081C570.888 659.536 571.43 652.66 570.198 645.499C568.936 638.622 566.922 632.154 564.111 626.211ZM540.73 682.714C534.655 685.312 528.951 685.844 523.384 684.22C517.7 682.551 512.613 679.416 508.357 674.906C503.911 670.187 500.223 665.117 497.352 659.744L489.806 644.767C487.204 639.256 485.349 633.281 484.19 626.902C483.112 620.798 483.571 614.833 485.647 609.28C487.673 603.789 491.451 599.544 497.173 596.19L508.057 590.717C514.132 588.12 519.836 587.587 525.403 589.211C531.086 590.881 536.174 594.016 540.43 598.526C544.876 603.244 548.564 608.315 551.435 613.688L558.981 628.664C561.582 634.175 563.438 640.15 564.597 646.529C565.674 652.633 565.216 658.599 563.139 664.151C561.114 669.643 557.336 673.887 551.613 677.242L540.73 682.714Z" fill="#231F20"/>
<path d="M534.628 640.301C534.622 640.245 534.561 640.195 534.561 640.195L527.643 626.513C527.638 626.457 527.577 626.406 527.577 626.406C525.963 623.624 524.299 620.902 522.473 618.252C520.508 615.333 518.571 613.314 516.584 611.977C516.345 611.83 516.106 611.683 515.816 611.597C512.859 610.745 510.381 611.992 509.295 614.857C509.209 615.147 509.118 615.381 509.144 615.661C509.028 618.041 509.513 620.816 510.67 624.149C511.684 627.156 512.866 630.149 514.154 633.074C514.159 633.13 514.22 633.181 514.22 633.181L521.138 646.863C521.143 646.919 521.204 646.969 521.204 646.969C522.818 649.752 524.482 652.473 526.309 655.123C528.274 658.042 530.211 660.061 532.197 661.399C532.436 661.546 532.676 661.693 532.966 661.778C533.775 661.985 534.517 662.085 535.244 662.017C537.146 661.839 538.724 660.62 539.487 658.518C539.572 658.228 539.663 657.994 539.637 657.715C539.754 655.335 539.269 652.56 538.112 649.227C537.098 646.219 535.916 643.227 534.628 640.301ZM515.969 622.3C515.354 620.553 514.984 619.008 514.803 617.671C515.792 618.594 516.807 619.797 517.853 621.335C519.552 623.827 521.145 626.386 522.692 629.062L529.543 642.637C530.76 645.4 531.87 648.23 532.869 651.07C533.483 652.818 533.853 654.363 534.034 655.699C533.045 654.776 532.031 653.574 530.985 652.036C529.285 649.543 527.693 646.984 526.151 644.364L519.299 630.789C518.077 627.97 516.967 625.14 515.969 622.3Z" fill="#231F20"/>
<path d="M591.31 527.216C589.999 525.872 588.299 525.184 586.215 525.21C584.125 525.179 582.297 526.14 580.557 528.051L572.732 536.678C571.094 538.467 570.422 540.334 570.615 542.403C570.819 544.584 571.652 546.255 573.074 547.589C573.135 547.64 573.135 547.64 573.196 547.691L611.683 585.952L611.745 586.003C613.998 588.387 615.818 590.361 617.144 591.873C618.908 593.852 619.781 595.35 619.906 596.692C619.984 597.531 619.778 598.34 619.21 598.9L618.905 599.267C618.393 599.823 617.692 600.17 616.96 600.182C615.389 600.272 613.745 599.58 611.56 597.922C610.098 596.761 608.096 595.256 605.299 593.091L605.238 593.041L563.429 558.473C563.368 558.423 563.368 558.423 563.306 558.372C561.89 557.094 560.134 556.412 557.937 556.448C555.853 556.473 554.07 557.316 552.432 559.105L544.607 567.733C542.867 569.644 542.145 571.572 542.338 573.641C542.536 575.766 543.359 577.325 544.826 578.542L590.262 615.704C599.416 622.521 607.397 625.838 614.016 625.445C620.585 625.114 626.435 621.917 631.84 615.772L636.851 610.227C642.496 604.229 645.084 598.121 644.809 591.547C644.534 584.973 640.493 577.34 632.765 568.867L591.31 527.216Z" fill="#FCBA28"/>
<path d="M636.736 564.887L595.286 523.291C592.916 520.861 589.867 519.623 586.196 519.571C582.474 519.58 579.178 521.128 576.368 524.267L568.543 532.895C565.83 535.856 564.623 539.24 565.023 542.925C565.358 546.504 566.814 549.414 569.224 551.671L594.842 577.145L567.028 554.133C564.567 551.937 561.529 550.81 557.919 550.809C554.197 550.818 550.951 552.305 548.243 555.322L540.418 563.949C537.603 567.032 536.346 570.478 536.746 574.163C537.085 577.798 538.659 580.754 541.282 582.878L586.723 620.096C586.784 620.147 586.784 620.146 586.846 620.197C597.095 627.871 606.348 631.52 614.264 631.119C614.655 631.083 614.991 631.051 615.382 631.015C622.987 630.305 629.959 626.439 635.968 619.504L640.928 614.021C647.546 606.973 650.726 599.343 650.366 591.254C650.016 583.277 645.47 574.45 636.803 564.993C636.797 564.937 636.792 564.881 636.736 564.887ZM644.743 591.44C645.018 598.014 642.429 604.122 636.784 610.121L631.774 615.665C626.374 621.866 620.574 625.002 613.95 625.339C607.381 625.67 599.349 622.415 590.195 615.598L544.76 578.436C543.298 577.275 542.47 575.66 542.272 573.535C542.078 571.466 542.801 569.537 544.54 567.626L552.365 558.999C554.004 557.21 555.786 556.366 557.871 556.341C560.073 556.361 561.823 556.988 563.24 558.265C563.301 558.316 563.301 558.316 563.362 558.367L605.171 592.934L605.233 592.985C608.029 595.149 609.981 596.716 611.493 597.816C613.679 599.473 615.323 600.166 616.894 600.075C617.626 600.064 618.327 599.716 618.839 599.161L619.143 598.794C619.706 598.177 619.969 597.363 619.84 596.585C619.653 595.192 618.836 593.689 617.077 591.766C615.752 590.254 613.932 588.281 611.678 585.896L611.617 585.846L573.13 547.584C573.124 547.528 573.068 547.533 573.007 547.483C571.591 546.205 570.753 544.478 570.549 542.297C570.356 540.228 571.028 538.36 572.666 536.571L580.491 527.944C582.23 526.033 584.064 525.129 586.148 525.103C588.294 525.129 589.933 525.765 591.243 527.11L632.688 568.649C640.427 577.234 644.468 584.866 644.743 591.44Z" fill="#231F20"/>
<path d="M705.617 477.344C704.882 476.115 703.848 475.309 702.504 474.814L693.166 471.455C691.822 470.96 690.525 470.968 689.215 471.429C688.066 471.818 687.229 472.517 686.713 473.637L674.747 506.793C674.207 508.253 672.587 509.025 671.126 508.485L657.64 503.595C656.179 503.054 655.407 501.434 655.948 499.974L665.494 473.53C665.776 472.319 665.621 471.262 664.963 470.252C664.227 469.023 663.193 468.217 661.85 467.722L657.178 466.015C655.834 465.519 654.537 465.528 653.171 465.994C652.023 466.383 651.185 467.081 650.669 468.201L641.123 494.645C640.85 495.347 640.338 495.903 639.693 496.245C639.043 496.531 638.26 496.604 637.557 496.332L624.071 491.442C622.61 490.901 621.839 489.281 622.379 487.821L634.345 454.664C634.627 453.454 634.472 452.396 633.813 451.386C633.078 450.157 632.044 449.351 630.7 448.856L621.362 445.497C620.018 445.002 618.722 445.01 617.355 445.476C616.207 445.866 615.369 446.564 614.853 447.684L595.493 501.33C595.019 502.897 595.547 504.935 597.191 507.432C598.972 510.199 601.708 512.313 605.459 513.824L671.013 537.489C674.85 538.71 678.303 538.839 681.427 537.87C684.278 536.984 686.024 535.749 686.615 534.227L705.976 480.582C706.431 479.411 706.276 478.354 705.617 477.344Z" fill="#FCBA28"/>
<path d="M704.439 469.556L695.1 466.198C692.536 465.309 689.993 465.264 687.422 466.125C684.745 467.051 682.715 468.877 681.542 471.412C681.491 471.473 681.496 471.529 681.451 471.646L670.379 502.293L662.15 499.338L670.751 475.465C670.802 475.404 670.797 475.348 670.842 475.231C671.604 472.509 671.18 469.784 669.715 467.383C668.316 465.088 666.304 463.47 663.734 462.526L659.067 460.874C656.502 459.986 653.96 459.941 651.389 460.801C648.711 461.728 646.682 463.553 645.508 466.088C645.458 466.15 645.463 466.205 645.417 466.323L636.815 490.196L628.586 487.241L639.658 456.594C639.709 456.533 639.704 456.477 639.749 456.36C640.51 453.638 640.087 450.913 638.622 448.512C637.223 446.217 635.211 444.6 632.641 443.655L623.302 440.296C620.737 439.407 618.194 439.363 615.624 440.223C612.946 441.15 610.917 442.975 609.743 445.51C609.692 445.571 609.698 445.627 609.652 445.744L590.246 499.507C590.246 499.507 590.251 499.563 590.195 499.568C589.146 502.825 589.887 506.535 592.515 510.52C594.949 514.241 598.602 517.115 603.412 519.092C603.468 519.087 603.473 519.143 603.529 519.138L669.2 542.847C669.256 542.842 669.256 542.842 669.317 542.893C672.691 543.988 675.997 544.356 679.073 544.069C680.471 543.939 681.853 543.64 683.169 543.235C687.717 541.796 690.66 539.49 691.939 536.269C691.939 536.269 691.934 536.213 691.99 536.207L711.396 482.445C711.446 482.384 711.441 482.328 711.487 482.211C712.248 479.489 711.824 476.764 710.359 474.363C708.96 472.068 706.948 470.45 704.439 469.556ZM681.595 537.854C678.414 538.828 675.023 538.75 671.181 537.473L605.626 513.809C601.875 512.297 599.196 510.178 597.358 507.417C595.771 504.914 595.186 502.881 595.661 501.314L615.021 447.669C615.537 446.549 616.374 445.85 617.523 445.461C618.889 444.995 620.191 445.042 621.53 445.482L630.868 448.84C632.212 449.336 633.246 450.142 633.981 451.37C634.645 452.436 634.8 453.494 634.513 454.649L622.547 487.805C622.006 489.266 622.778 490.886 624.239 491.426L637.725 496.316C638.428 496.589 639.21 496.516 639.861 496.229C640.506 495.887 641.074 495.326 641.291 494.629L650.837 468.186C651.353 467.066 652.19 466.367 653.339 465.978C654.705 465.512 656.007 465.56 657.345 465.999L662.017 467.706C663.361 468.201 664.339 469.012 665.13 470.236C665.794 471.302 665.949 472.359 665.662 473.514L656.115 499.958C655.575 501.419 656.347 503.039 657.807 503.579L671.126 508.485C672.587 509.025 674.207 508.253 674.747 506.793L686.713 473.637C687.229 472.517 688.066 471.818 689.215 471.429C690.581 470.963 691.883 471.01 693.166 471.455L702.504 474.814C703.848 475.309 704.882 476.115 705.617 477.344C706.281 478.41 706.436 479.467 706.149 480.622L686.788 534.267C686.141 535.794 684.39 536.973 681.595 537.854Z" fill="#231F20"/>
<path d="M711.355 381.085C710.596 374.161 708.061 368.757 703.667 364.598C699.208 360.333 693.872 357.559 687.767 356.211C681.433 354.828 675.183 354.34 669.118 354.624L652.433 355.956C646.398 356.575 640.28 358.105 634.235 360.418C628.464 362.649 623.611 366.261 619.84 371.182C616.114 375.986 614.506 381.72 614.818 388.686L617.257 419.651C617.464 421.268 618.806 422.947 621.321 424.518C624.082 426.291 627.485 427.101 631.476 426.954L700.967 421.483C704.983 420.995 708.138 419.742 710.583 417.54C712.77 415.587 713.894 413.733 713.799 412.106L711.355 381.085ZM691.592 392.35C691.555 393.763 690.479 394.935 689.026 395.071C689.026 395.071 689.026 395.071 688.97 395.076L639.133 398.995C637.679 399.13 636.4 398.122 636.153 396.678C635.586 393.629 635.849 391.009 636.953 388.932C636.998 388.815 637.094 388.637 637.196 388.515C638.65 386.574 641.571 385.229 646.389 384.272C650.546 383.489 653.433 382.994 655.284 382.878L670.571 381.676C672.416 381.504 675.35 381.512 679.597 381.68C684.519 381.841 687.592 382.739 689.33 384.438C689.453 384.539 689.519 384.646 689.647 384.803C690.953 386.712 691.64 389.243 691.592 392.35Z" fill="#FCBA28"/>
<path d="M707.517 360.516C702.257 355.535 696.031 352.281 688.949 350.742C682.157 349.289 675.332 348.685 668.769 349.072L668.713 349.077L651.916 350.419L651.86 350.425C645.322 351.091 638.706 352.724 632.173 355.252C625.422 357.856 619.783 362.106 615.352 367.821C610.877 373.654 608.779 380.788 609.154 389.045C609.16 389.101 609.16 389.101 609.165 389.157L611.614 420.234C611.62 420.29 611.62 420.29 611.625 420.346C611.999 423.752 614.203 426.818 618.221 429.376C622 431.787 626.503 432.89 631.673 432.689C631.729 432.684 631.729 432.684 631.785 432.679L701.388 427.197C701.388 427.197 701.388 427.197 701.444 427.192L701.5 427.187C706.634 426.595 710.977 424.779 714.311 421.817C717.852 418.666 719.568 415.291 719.417 411.864C719.412 411.808 719.412 411.808 719.407 411.752L716.957 380.675C716.952 380.619 716.952 380.619 716.947 380.563C716.068 372.353 712.843 365.603 707.517 360.516ZM710.583 417.54C708.138 419.742 704.932 421.057 700.967 421.483L631.476 426.954C627.485 427.101 624.082 426.291 621.321 424.518C618.862 422.942 617.464 421.268 617.257 419.651L614.818 388.686C614.506 381.72 616.176 376.036 619.84 371.182C623.617 366.317 628.408 362.654 634.235 360.418C640.28 358.105 646.398 356.575 652.433 355.956L669.118 354.624C675.178 354.284 681.433 354.828 687.767 356.211C693.811 357.508 699.152 360.338 703.667 364.598C708.061 368.757 710.596 374.161 711.355 381.085L713.794 412.05C713.894 413.733 712.77 415.587 710.583 417.54Z" fill="#231F20"/>
<path d="M689.274 384.443C687.536 382.744 684.463 381.846 679.541 381.685C675.3 381.573 672.366 381.565 670.515 381.682L655.228 382.883C653.383 383.055 650.49 383.494 646.333 384.277C641.515 385.235 638.594 386.579 637.14 388.52C637.038 388.642 636.937 388.764 636.897 388.937C635.854 391.065 635.586 393.629 636.097 396.683C636.344 398.127 637.618 399.08 639.077 399L688.914 395.081C688.914 395.081 688.914 395.081 688.97 395.076C690.368 394.946 691.499 393.768 691.536 392.355C691.584 389.248 690.953 386.712 689.535 384.814C689.463 384.651 689.397 384.545 689.274 384.443ZM641.785 391.753C642.15 391.437 643.424 390.584 647.358 389.822C651.236 389.065 654.016 388.637 655.638 388.485L670.925 387.284C672.547 387.133 675.369 387.151 679.274 387.294C683.292 387.427 684.707 388.085 685.124 388.328C685.329 388.704 685.544 389.191 685.646 389.689L641.412 393.198C641.528 392.623 641.654 392.16 641.785 391.753Z" fill="#231F20"/>
<path d="M133.538 435.075L199.562 432.353C201.306 432.303 202.977 431.471 204.529 429.972C206.031 428.534 206.698 426.611 206.59 424.252L206.104 412.395C205.991 409.98 205.204 408.192 203.553 406.823C201.841 405.404 200.203 404.767 198.408 404.878L132.383 407.6C131.651 407.612 130.893 407.344 130.343 406.888C129.787 406.376 129.496 405.67 129.428 404.943L128.855 390.951C128.684 389.726 128.148 388.817 127.119 388.067C125.968 387.215 124.752 386.877 123.288 386.901L113.399 387.317C111.996 387.391 110.741 387.847 109.701 388.79C108.762 389.611 108.286 390.558 108.233 391.804L110.776 452.881C110.946 454.106 111.482 455.015 112.511 455.765C113.663 456.617 114.879 456.954 116.343 456.931L126.232 456.515C127.635 456.441 128.89 455.985 129.93 455.042C130.869 454.221 131.344 453.274 131.397 452.028L130.825 438.036C130.813 437.304 131.08 436.546 131.537 435.995C132.105 435.435 132.806 435.087 133.538 435.075Z" fill="#FCBA28"/>
<path d="M137.042 452.065C137.036 452.009 137.026 451.898 137.021 451.842L136.531 440.549L199.744 437.921C202.947 437.791 205.811 436.452 208.398 433.954C211.031 431.339 212.299 428.006 212.147 423.959L211.661 412.102C211.509 408.055 209.965 404.814 207.097 402.487C204.346 400.206 201.308 399.079 198.16 399.204L134.948 401.833L134.458 390.541C134.452 390.485 134.442 390.373 134.437 390.317C134.12 387.526 132.716 385.175 130.413 383.472C128.233 381.871 125.74 381.145 123.04 381.227L113.151 381.643C110.457 381.781 108.059 382.682 106.024 384.451C103.883 386.287 102.704 388.766 102.629 391.594C102.635 391.65 102.645 391.761 102.65 391.817L105.157 453.124C105.163 453.179 105.173 453.291 105.178 453.347C105.495 456.138 106.899 458.489 109.202 460.192C111.382 461.793 113.875 462.52 116.575 462.437L126.464 462.021C126.687 462.001 126.911 461.98 127.135 461.959C129.595 461.729 131.764 460.793 133.642 459.152C135.788 457.372 136.967 454.893 137.042 452.065ZM131.448 451.967C131.395 453.213 130.919 454.16 129.981 454.981C128.941 455.924 127.686 456.379 126.283 456.454L116.394 456.869C114.99 456.944 113.713 456.555 112.562 455.704C111.533 454.954 110.997 454.045 110.826 452.82L108.284 391.743C108.337 390.497 108.813 389.55 109.751 388.729C110.847 387.78 112.046 387.33 113.449 387.256L123.338 386.84C124.742 386.766 126.019 387.154 127.17 388.006C128.199 388.756 128.735 389.664 128.906 390.89L129.479 404.881C129.49 405.614 129.838 406.315 130.393 406.827C130.949 407.339 131.651 407.612 132.434 407.539L198.459 404.817C200.203 404.767 201.897 405.398 203.604 406.762C205.194 408.08 206.042 409.919 206.155 412.334L206.641 424.19C206.754 426.605 206.082 428.473 204.58 429.911C203.033 431.465 201.413 432.237 199.613 432.292L133.589 435.014C132.856 435.026 132.156 435.374 131.643 435.929C131.131 436.484 130.858 437.187 130.931 437.97L131.448 451.967Z" fill="#231F20"/>
<path d="M123.247 319.386L120.967 326.988C118.5 335.002 118.577 341.877 121.357 347.484C124.081 353.096 130.107 357.835 139.147 361.617L197.804 382.089C199.616 382.766 201.41 382.655 203.3 381.746C205.189 380.836 206.446 379.196 207.177 376.758L210.537 365.615C211.223 363.294 211.04 361.337 209.968 359.519C208.835 357.651 207.373 356.49 205.515 355.93C205.515 355.93 205.459 355.935 205.454 355.879L192.768 351.705C191.312 351.22 190.551 349.712 190.975 348.206L193.346 340.369C193.774 338.919 195.272 338.046 196.778 338.469L209.682 341.947L209.738 341.942C211.595 342.502 213.44 342.329 215.436 341.353C217.326 340.444 218.593 338.915 219.279 336.595L222.639 325.451C223.365 322.958 223.233 320.939 222.161 319.122C221.088 317.304 219.632 316.199 217.79 315.807L157.534 300.56C147.884 298.697 140.273 299.351 134.927 302.501C129.468 305.662 125.541 311.331 123.247 319.386ZM141.774 329.333L141.9 328.87C142.123 328.228 142.523 327.683 143.107 327.29C144.493 326.428 146.394 326.25 149.09 326.732C151.044 327.114 153.689 327.656 156.915 328.371L156.971 328.365L175.455 333.014C176.208 333.226 176.814 333.677 177.217 334.373C177.616 335.012 177.694 335.851 177.477 336.548L175.671 342.583C175.459 343.336 174.952 343.948 174.251 344.295C173.926 344.438 173.596 344.525 173.261 344.557C172.869 344.593 172.467 344.518 172.06 344.387L154.085 337.942L154.029 337.947C150.696 336.679 148.354 335.769 146.654 335.082C144.079 334.081 142.489 332.763 141.824 331.077C141.61 330.589 141.552 329.974 141.774 329.333Z" fill="#FCBA28"/>
<path d="M137.034 366.778C137.09 366.773 137.151 366.824 137.207 366.818L195.864 387.291C197.614 387.917 199.385 388.147 201.118 387.985C202.628 387.844 204.168 387.418 205.681 386.713C209.028 385.103 211.36 382.291 212.566 378.286L215.926 367.142C217.086 363.255 216.701 359.737 214.766 356.533C212.903 353.492 210.34 351.418 207.15 350.475L197.079 347.128L197.85 344.518L208.093 347.285C211.283 348.228 214.527 347.925 217.767 346.382C221.114 344.772 223.396 342.021 224.561 338.189L227.92 327.045C229.126 323.041 228.787 319.406 226.852 316.202C224.978 313.049 222.314 311.098 219.028 310.333L158.716 295.091C158.66 295.097 158.599 295.046 158.543 295.051C147.458 292.927 138.516 293.818 131.935 297.648C125.304 301.538 120.576 308.297 117.792 317.751L115.507 325.298C112.606 334.706 112.814 342.979 116.222 349.881C119.63 356.783 126.59 362.451 137.034 366.778ZM157.422 300.571L217.678 315.817C219.525 316.265 220.921 317.32 222.049 319.132C223.116 320.894 223.309 322.963 222.527 325.462L219.167 336.605C218.481 338.926 217.214 340.454 215.324 341.364C213.323 342.284 211.483 342.512 209.626 341.952L209.57 341.957L196.666 338.48C195.221 338.107 193.662 338.93 193.234 340.38L190.863 348.216C190.434 349.666 191.201 351.23 192.656 351.715L205.342 355.89C205.342 355.89 205.398 355.884 205.404 355.94C207.261 356.5 208.723 357.661 209.856 359.53C210.923 361.291 211.111 363.305 210.425 365.625L207.066 376.769C206.339 379.262 205.077 380.846 203.188 381.756C201.298 382.666 199.504 382.777 197.692 382.1L139.035 361.628C129.94 357.851 123.969 353.106 121.245 347.494C118.527 341.938 118.393 335.069 120.855 326.998L123.135 319.396C125.485 311.336 129.356 305.672 134.703 302.522C140.161 299.362 147.772 298.708 157.422 300.571Z" fill="#231F20"/>
<path d="M146.604 335.143C148.304 335.83 150.645 336.74 153.978 338.008L154.034 338.003L172.009 344.448C172.417 344.579 172.818 344.654 173.21 344.618C173.545 344.587 173.876 344.499 174.201 344.356C174.902 344.009 175.409 343.397 175.62 342.644L177.426 336.609C177.638 335.856 177.565 335.073 177.167 334.434C176.769 333.794 176.157 333.287 175.404 333.075L156.92 328.427L156.864 328.432C153.638 327.718 151.049 327.17 149.04 326.793C146.343 326.311 144.437 326.433 143.056 327.351C142.467 327.689 142.072 328.289 141.85 328.931L141.724 329.394C141.552 329.974 141.559 330.65 141.784 331.25C142.495 332.819 144.028 334.142 146.604 335.143ZM171.276 337.804L171.145 338.211L167.12 336.782L171.276 337.804Z" fill="#231F20"/>
<path d="M156.195 249.355C156.567 251.52 157.45 253.13 158.973 254.341L222.895 305.233C224.418 306.445 226.214 306.954 228.4 306.807C230.475 306.669 232.191 305.719 233.707 303.829L240.926 294.751C242.442 292.861 242.996 290.947 242.635 288.894C242.264 286.729 241.38 285.119 239.857 283.908L224.93 272.045C223.896 271.239 223.587 269.745 224.154 268.564C224.777 267.378 226.128 266.744 227.405 267.132L252.922 274.001C255.978 274.111 258.253 273.109 259.956 270.806C259.956 270.806 259.951 270.751 260.007 270.745L267.226 261.667C268.742 259.777 269.296 257.863 268.935 255.81C268.564 253.645 267.681 252.035 266.157 250.824L202.348 199.921C200.824 198.709 199.135 198.134 197.106 198.154C194.813 198.368 192.996 199.44 191.536 201.325L184.317 210.404C182.801 212.294 182.246 214.207 182.607 216.26C182.978 218.426 183.862 220.035 185.385 221.247L200.312 233.109C201.347 233.915 201.655 235.409 201.089 236.59C200.466 237.777 199.115 238.411 197.838 238.022L172.321 231.153C171.812 231.144 171.36 231.13 170.857 231.177C168.508 231.396 166.685 232.412 165.23 234.353C165.23 234.353 165.236 234.409 165.18 234.414L157.961 243.493C156.45 245.439 155.895 247.352 156.195 249.355Z" fill="#FCBA28"/>
<path d="M155.496 258.784L219.412 309.62C222.031 311.688 225.165 312.636 228.755 312.414C228.867 312.404 229.034 312.388 229.146 312.378C232.669 312.049 235.67 310.359 238.093 307.312L245.312 298.233C247.837 295.065 248.815 291.645 248.191 287.981C247.577 284.428 245.958 281.589 243.34 279.521L239.015 276.089L251.745 279.526C251.918 279.567 252.147 279.602 252.32 279.642C257.365 279.904 261.535 278.048 264.399 274.284L271.617 265.205C274.142 262.037 275.12 258.617 274.496 254.953C273.882 251.4 272.264 248.561 269.645 246.493L205.825 195.479C203.262 193.405 200.24 192.446 196.864 192.536C196.808 192.541 196.752 192.546 196.696 192.552C192.837 192.912 189.618 194.679 187.144 197.787L179.874 206.926C177.35 210.095 176.372 213.514 176.996 217.179C177.609 220.732 179.228 223.57 181.847 225.638L186.172 229.07L173.442 225.633C173.269 225.593 173.04 225.558 172.867 225.518C167.822 225.255 163.652 227.111 160.788 230.876L153.569 239.954C151.045 243.123 150.066 246.542 150.69 250.207C151.253 253.821 152.877 256.715 155.496 258.784ZM165.23 234.353C166.69 232.468 168.508 231.396 170.857 231.177C171.304 231.135 171.812 231.144 172.321 231.153L197.838 238.022C199.11 238.355 200.466 237.777 201.089 236.59C201.711 235.404 201.352 233.971 200.312 233.109L185.385 221.247C183.862 220.035 182.978 218.426 182.607 216.26C182.246 214.207 182.857 212.288 184.317 210.404L191.536 201.325C193.051 199.435 194.874 198.419 197.106 198.154C199.079 198.139 200.824 198.709 202.348 199.921L266.264 250.757C267.787 251.969 268.671 253.578 269.042 255.744C269.403 257.797 268.792 259.716 267.332 261.6L260.114 270.679C260.114 270.679 260.119 270.735 260.063 270.74C258.304 273.048 256.084 274.045 253.028 273.935L227.511 267.066C226.239 266.733 224.883 267.311 224.261 268.498C223.638 269.684 223.997 271.117 225.037 271.979L239.964 283.841C241.487 285.053 242.371 286.663 242.742 288.828C243.103 290.881 242.492 292.8 241.032 294.684L233.814 303.763C232.298 305.653 230.587 306.659 228.507 306.74C226.321 306.888 224.525 306.379 223.002 305.167L158.979 254.397C157.455 253.186 156.572 251.576 156.2 249.411C155.84 247.357 156.45 245.439 157.91 243.554L165.23 234.353C165.236 234.409 165.18 234.414 165.23 234.353Z" fill="#231F20"/>
<path d="M245.612 163.054C243.499 168.215 242.881 173.688 243.8 179.299C244.678 185.083 246.19 189.793 248.212 193.327C251.264 198.232 254.866 201.167 258.901 202.088C263.281 203.089 269.387 202.632 276.999 200.794C288.251 198.051 291.413 198.094 292.981 198.569C295.352 199.193 297.17 200.547 298.431 202.572C298.492 202.623 298.497 202.679 298.564 202.786C300.285 206.122 301.004 208.988 300.736 211.552C300.695 211.725 300.66 211.954 300.62 212.127C299.702 214.976 297.239 216.391 294.242 215.711C294.186 215.717 294.186 215.717 294.125 215.666C291.871 215.087 289.976 213.515 288.495 210.946C286.225 207.773 284.273 208.012 282.485 208.799L266.23 217.762C264.585 218.874 263.374 220.398 264.837 223.984L268.774 231.119C271.54 235.373 274.461 238.259 277.368 239.793C280.275 241.327 283.49 241.929 287.186 241.641C290.938 241.347 295.003 240.178 299.264 238.088L315.676 228.997C320.069 226.5 323.217 222.765 325.28 217.665C327.393 212.504 328.01 207.032 327.091 201.42C326.213 195.636 324.757 190.921 322.786 187.325C319.683 182.482 316.025 179.552 311.99 178.631C307.61 177.63 301.504 178.087 293.892 179.926C282.641 182.668 279.478 182.625 277.91 182.151C275.539 181.526 273.721 180.172 272.46 178.147C272.399 178.096 272.394 178.04 272.333 177.989C270.621 174.765 269.852 171.96 269.963 169.524C269.993 169.239 270.028 169.01 270.114 168.72C271.043 165.982 273.393 164.578 276.308 164.983C279.09 165.175 280.917 167.825 282.071 169.917C284.285 173.094 286.237 172.856 288.076 172.007L304.651 162.845C306.295 161.733 307.507 160.21 306.044 156.623L302.106 149.489C299.34 145.234 296.42 142.348 293.513 140.814C290.605 139.281 287.39 138.678 283.694 138.967C279.943 139.261 275.827 140.491 271.51 142.586L255.377 151.65C250.878 154.214 247.73 157.949 245.612 163.054Z" fill="#FCBA28"/>
<path d="M243.398 196.146C243.398 196.146 243.403 196.202 243.459 196.196C247.313 202.436 252.128 206.274 257.714 207.501C262.033 208.452 267.326 208.353 273.705 207.193L263.406 212.893C263.356 212.954 263.3 212.959 263.193 213.025C258.624 216.046 257.375 220.789 259.696 226.325C259.763 226.432 259.768 226.488 259.834 226.595L263.905 233.942C263.91 233.998 263.971 234.049 264.032 234.1C267.385 239.202 270.989 242.758 274.787 244.772C278.641 246.782 282.95 247.62 287.596 247.243C287.764 247.227 287.932 247.212 288.1 247.196C292.461 246.789 297.07 245.4 301.763 243.1C301.819 243.095 301.813 243.039 301.869 243.034L318.393 233.933C323.857 230.828 327.923 226.049 330.446 219.834C332.923 213.737 333.675 207.293 332.601 200.624C331.604 194.174 329.913 188.747 327.61 184.619C327.605 184.563 327.544 184.512 327.538 184.456C323.578 178.283 318.769 174.501 313.177 173.218C308.858 172.267 303.565 172.367 297.186 173.526L307.485 167.827C307.535 167.765 307.591 167.76 307.698 167.694C312.267 164.673 313.516 159.931 311.195 154.394C311.128 154.287 311.123 154.231 311.057 154.125L306.986 146.777C306.981 146.721 306.92 146.67 306.859 146.619C303.506 141.517 299.902 137.962 296.104 135.947C292.25 133.938 287.941 133.099 283.295 133.476C278.816 133.838 273.984 135.248 269.022 137.685C268.966 137.69 268.971 137.746 268.915 137.752L252.61 146.776C247.039 149.947 242.973 154.726 240.451 160.941C237.974 167.038 237.221 173.483 238.295 180.151C239.236 186.607 240.983 192.028 243.398 196.146ZM283.705 139.079C287.345 138.795 290.56 139.398 293.523 140.926C296.43 142.46 299.295 145.351 302.117 149.6L306.054 156.735C307.517 160.321 306.25 161.85 304.661 162.957L288.086 172.119C286.242 172.912 284.296 173.206 282.081 170.029C280.927 167.936 279.1 165.287 276.318 165.095C273.399 164.634 270.992 166.043 270.124 168.832C270.033 169.066 270.003 169.351 269.973 169.636C269.862 172.072 270.683 174.815 272.343 178.101C272.348 178.157 272.409 178.208 272.47 178.259C273.731 180.284 275.55 181.638 277.921 182.262C279.483 182.681 282.651 182.78 293.902 180.037C301.515 178.199 307.564 177.747 312.001 178.743C316.035 179.664 319.693 182.594 322.796 187.437C324.768 191.033 326.223 195.748 327.102 201.532C327.964 207.149 327.347 212.621 325.29 217.777C323.228 222.877 320.079 226.612 315.687 229.109L299.275 238.199C295.069 240.284 291.004 241.453 287.197 241.752C283.557 242.036 280.342 241.433 277.379 239.905C274.471 238.371 271.607 235.48 268.785 231.231L264.847 224.096C263.384 220.51 264.652 218.981 266.241 217.874L282.495 208.911C284.283 208.124 286.235 207.885 288.506 211.057C289.986 213.627 291.826 215.204 294.136 215.778C294.192 215.773 294.192 215.773 294.253 215.823C297.244 216.447 299.712 215.088 300.631 212.238C300.671 212.065 300.706 211.836 300.746 211.664C301.015 209.1 300.296 206.234 298.574 202.897C298.569 202.842 298.508 202.791 298.441 202.684C297.181 200.658 295.362 199.305 292.991 198.68C291.429 198.262 288.266 198.219 277.01 200.905C269.397 202.744 263.347 203.196 258.911 202.2C254.877 201.279 251.275 198.344 248.222 193.439C246.2 189.905 244.689 185.195 243.81 179.411C242.948 173.794 243.565 168.321 245.622 163.166C247.684 158.066 250.889 154.326 255.332 151.767L271.531 142.81C275.837 140.603 279.953 139.372 283.705 139.079ZM277.156 172.857C277.217 172.908 277.227 173.02 277.289 173.071C278.396 174.659 279.584 175.902 280.908 176.794C279.789 176.899 279.387 176.823 279.276 176.834C278.35 176.582 277.687 176.136 277.167 175.395C276.064 173.241 275.643 171.758 275.488 170.7L275.544 170.695C275.783 170.842 276.339 171.354 277.156 172.857ZM289.262 204.049C290.822 203.847 291.392 203.906 291.509 203.952C292.435 204.204 293.097 204.65 293.617 205.391C294.517 207.168 295.065 208.809 295.124 210.045C294.355 209.665 293.707 208.767 293.298 208.015C293.232 207.909 293.171 207.858 293.16 207.746C291.997 206.163 290.692 204.874 289.262 204.049Z" fill="#231F20"/>
<path d="M320.406 136.443C320.704 137.825 321.317 138.952 322.417 139.865C323.34 140.681 324.383 140.979 325.557 140.869C325.557 140.869 325.557 140.869 325.613 140.864L339.345 138.116C339.457 138.105 339.513 138.1 339.625 138.09C340.24 138.032 340.932 138.193 341.472 138.538C342.073 138.933 342.527 139.567 342.656 140.345L355.534 205.196C355.864 206.914 356.905 208.396 358.662 209.698C360.303 210.955 362.312 211.332 364.635 210.833L376.263 208.507C378.647 208.059 380.291 206.946 381.365 205.154C382.489 203.3 382.887 201.514 382.501 199.802L369.684 135.002C369.56 134.28 369.716 133.532 370.106 132.875C370.501 132.274 371.136 131.82 371.913 131.691L385.646 128.943C386.855 128.604 387.636 127.911 388.208 126.786C388.882 125.538 389.041 124.226 388.743 122.844L386.823 113.152C386.525 111.769 385.912 110.642 384.811 109.729C383.889 108.913 382.846 108.616 381.616 108.73L321.639 120.646C320.429 120.985 319.648 121.678 319.076 122.803C318.403 124.051 318.243 125.363 318.542 126.745L320.406 136.443Z" fill="#FCBA28"/>
<path d="M314.922 137.519C315.452 140.177 316.734 142.426 318.812 144.15C320.957 145.98 323.568 146.752 326.414 146.43C326.47 146.425 326.582 146.414 326.638 146.409L337.713 144.191L349.995 206.277C350.622 209.377 352.398 212.088 355.246 214.191C357.793 216.097 360.744 216.893 364.043 216.585C364.603 216.533 365.156 216.425 365.71 216.317L377.339 213.991C381.273 213.229 384.242 211.203 386.147 208.036C388 204.929 388.613 201.826 387.98 198.67L375.698 136.584L386.772 134.366C386.828 134.36 386.94 134.35 386.991 134.289C389.684 133.53 391.836 131.806 393.121 129.26C394.366 126.888 394.691 124.319 394.216 121.656L392.296 111.964C391.766 109.306 390.484 107.056 388.406 105.333C386.261 103.502 383.65 102.731 380.859 103.047C380.804 103.053 380.692 103.063 380.636 103.068L320.435 115.005C320.379 115.01 320.268 115.021 320.217 115.082C317.468 115.846 315.372 117.565 314.081 120.054C312.836 122.427 312.512 124.995 312.986 127.659L314.922 137.519ZM319.015 122.753C319.587 121.628 320.373 120.99 321.578 120.596L381.554 108.68C382.785 108.565 383.828 108.862 384.75 109.679C385.851 110.591 386.463 111.719 386.762 113.101L388.682 122.793C388.98 124.175 388.765 125.493 388.147 126.735C387.575 127.86 386.733 128.503 385.585 128.892L371.852 131.641C371.13 131.764 370.496 132.218 370.045 132.825C369.65 133.426 369.494 134.173 369.623 134.951L382.501 199.802C382.831 201.52 382.489 203.3 381.365 205.154C380.291 206.946 378.647 208.059 376.263 208.507L364.635 210.833C362.251 211.281 360.297 210.9 358.662 209.698C356.905 208.396 355.864 206.914 355.534 205.196L342.656 140.345C342.532 139.623 342.078 138.989 341.472 138.538C340.932 138.193 340.296 138.027 339.625 138.09C339.513 138.1 339.457 138.105 339.345 138.116L325.613 140.864C325.613 140.864 325.613 140.864 325.557 140.869C324.327 140.984 323.34 140.681 322.417 139.865C321.317 138.952 320.704 137.825 320.406 136.443L318.486 126.751C318.182 125.312 318.403 124.051 319.015 122.753Z" fill="#231F20"/>
<path d="M413.127 134.5L402.48 195.681C402.093 197.578 402.534 199.286 403.769 201.032C404.942 202.727 406.786 203.74 409.354 204.064L420.885 205.526C423.281 205.81 425.212 205.348 426.774 203.961C428.444 202.508 429.365 200.899 429.64 199.012L429.635 198.956L431.729 185.73C431.944 184.413 432.984 183.47 434.215 183.355C434.438 183.334 434.606 183.318 434.835 183.353L442.943 184.402C444.428 184.602 445.514 185.967 445.37 187.447L444.019 200.772L444.025 200.828C443.755 202.771 444.262 204.585 445.502 206.387C446.676 208.083 448.402 209.05 450.803 209.39L462.334 210.852C464.902 211.176 466.889 210.709 468.452 209.322C470.071 207.93 470.886 206.387 471.049 204.51L476.269 142.596C476.535 132.756 474.606 125.377 470.608 120.618C466.61 115.858 460.414 112.939 452.088 111.967L444.21 110.954C435.868 109.815 429.103 111.067 424.078 114.638C419.058 118.266 415.336 124.931 413.127 134.5ZM435.302 164.188L438.684 145.427L438.679 145.371C439.372 141.922 439.875 139.449 440.323 137.603C440.916 134.896 441.934 133.109 443.488 132.231C444.021 131.899 444.631 131.785 445.257 131.84L445.77 131.905C446.457 132.01 447.053 132.349 447.491 132.816C448.567 134.069 449.075 135.883 448.995 138.655C448.954 140.633 448.869 143.348 448.669 146.638L448.674 146.694L447.123 165.736C447.079 166.473 446.694 167.186 446.065 167.696C445.649 168.073 445.1 168.237 444.541 168.289C444.317 168.31 444.15 168.326 443.921 168.291L437.639 167.467C436.896 167.367 436.184 166.982 435.73 166.348C435.392 165.759 435.202 164.93 435.302 164.188Z" fill="#FCBA28"/>
<path d="M399.165 204.282C401.252 207.302 404.47 209.146 408.635 209.659L420.166 211.121C424.164 211.651 427.624 210.651 430.446 208.244C433.16 205.903 434.755 203.047 435.18 199.736L436.797 189.262L439.482 189.632L438.435 200.165C438.011 203.476 438.867 206.612 440.893 209.581C442.98 212.602 446.086 214.455 450.079 214.929L461.61 216.391C462.866 216.556 464.051 216.558 465.169 216.453C467.797 216.208 470.134 215.257 472.118 213.549C474.884 211.147 476.417 208.24 476.669 204.888L481.884 142.918C481.878 142.862 481.873 142.806 481.868 142.75C482.171 131.497 479.837 122.802 474.946 116.941C469.995 111.029 462.552 107.437 452.802 106.316L444.979 105.298C435.208 103.954 427.066 105.56 420.822 109.978C414.584 114.453 410.123 122.258 407.592 133.212C407.597 133.268 407.546 133.329 407.551 133.385L396.965 194.616C396.328 198.06 397.078 201.262 399.165 204.282ZM444.265 110.949L452.144 111.962C460.47 112.933 466.666 115.852 470.664 120.612C474.662 125.372 476.54 132.812 476.325 142.59L471.105 204.505C470.998 206.377 470.132 207.98 468.508 209.317C466.94 210.647 464.902 211.176 462.39 210.847L450.859 209.385C448.463 209.1 446.732 208.078 445.558 206.382C444.318 204.58 443.811 202.766 444.081 200.823L444.075 200.767L445.426 187.442C445.565 185.906 444.484 184.596 442.999 184.397L434.891 183.348C434.662 183.313 434.494 183.329 434.271 183.35C433.04 183.465 431.944 184.413 431.785 185.725L429.691 198.951L429.696 199.007C429.426 200.95 428.505 202.559 426.83 203.956C425.262 205.287 423.336 205.805 420.941 205.521L409.41 204.059C406.842 203.735 405.054 202.717 403.825 201.027C402.59 199.281 402.205 197.568 402.536 195.676L413.127 134.5C415.336 124.931 419.058 118.266 424.134 114.633C429.154 111.006 435.918 109.754 444.265 110.949Z" fill="#231F20"/>
<path d="M437.751 167.456L444.033 168.28C444.261 168.315 444.429 168.3 444.653 168.279C445.212 168.227 445.7 168.012 446.177 167.685C446.75 167.181 447.14 166.524 447.235 165.725L448.786 146.684L448.78 146.628C448.981 143.338 449.071 140.678 449.107 138.644C449.192 135.929 448.679 134.059 447.603 132.805C447.159 132.283 446.508 131.949 445.882 131.894L445.368 131.829C444.743 131.775 444.133 131.888 443.6 132.22C442.051 133.154 441.028 134.886 440.435 137.592C440.043 139.434 439.54 141.906 438.791 145.361L438.796 145.417L435.414 164.177C435.258 164.925 435.443 165.698 435.897 166.332C436.295 166.972 436.952 167.362 437.751 167.456ZM442.122 158.08L441.786 162.342L441.384 162.266L442.122 158.08Z" fill="#231F20"/>
<path d="M503.639 228.544L517.193 235.965C521.444 237.994 525.504 239.195 529.252 239.465C532.889 239.746 536.101 239.108 539.062 237.591C541.966 236.079 544.853 233.158 547.613 228.895L551.517 221.762C552.988 218.184 551.774 216.662 550.205 215.567L533.739 206.556C531.973 205.762 529.979 205.553 527.734 208.696C526.064 211.954 524.735 213.432 523.089 213.924C522.977 213.934 522.926 213.996 522.815 214.006C519.765 214.573 517.321 213.165 516.384 210.376C516.302 210.101 516.22 209.827 516.25 209.542C516.198 207.178 516.786 204.415 518.06 201.138C519.197 198.211 520.496 195.213 521.862 192.322C521.857 192.266 521.913 192.261 521.908 192.205L529.284 178.768C529.279 178.712 529.335 178.707 529.385 178.646C531.047 175.896 532.886 173.242 534.736 170.701C536.839 167.853 538.797 165.865 540.828 164.66C541.097 164.522 541.31 164.39 541.585 164.308C544.451 163.589 546.94 164.88 548.112 167.76C548.178 167.866 548.183 167.922 548.194 168.034C548.686 169.681 548.131 171.594 546.283 174.756C544.868 178.329 546.082 179.851 547.706 180.941L564.111 189.901C565.872 190.639 567.754 190.858 569.999 187.716L573.902 180.583C576.012 175.986 576.932 171.951 576.63 168.708C576.378 165.404 575.135 162.361 572.946 159.463C570.692 156.458 567.497 153.654 563.489 151.207L550.138 143.541C544.177 140.713 538.47 140.005 532.855 141.488C527.067 142.931 521.928 145.892 517.485 150.256C512.889 154.802 509.006 159.734 505.942 164.984L497.893 179.667C495.124 185.059 493.028 191.008 491.701 197.337C490.409 203.437 490.683 209.39 492.563 215.025C494.381 220.608 498.007 225.008 503.639 228.544Z" fill="#FCBA28"/>
<path d="M487.203 216.822C489.471 223.605 493.99 229.106 500.702 233.331C500.763 233.381 500.819 233.376 500.824 233.432L514.495 240.899C514.551 240.894 514.556 240.95 514.612 240.945C519.514 243.307 524.272 244.725 528.813 245.034C530.288 245.122 531.758 245.154 533.156 245.024C536.175 244.742 539.031 243.911 541.611 242.542C545.374 240.555 548.985 236.946 552.288 231.844C552.339 231.782 552.334 231.726 552.385 231.665L556.435 224.293C556.485 224.232 556.531 224.115 556.576 223.998C558.882 218.48 557.655 213.8 553.143 210.78C553.082 210.73 553.02 210.679 552.964 210.684L536.376 201.571C536.315 201.521 536.259 201.526 536.198 201.475C531.194 199.235 526.535 200.685 523.105 205.631C523.059 205.748 522.958 205.87 522.912 205.987C522.573 206.583 522.335 207.056 522.092 207.474C522.313 206.212 522.742 204.762 523.378 203.123C524.47 200.314 525.678 197.55 526.999 194.775L534.274 181.461C535.894 178.884 537.577 176.358 539.381 173.933C540.435 172.538 541.398 171.376 542.332 170.499C542.145 170.912 541.851 171.39 541.512 171.986C541.466 172.103 541.365 172.225 541.319 172.342C539.014 177.86 540.302 182.591 544.87 185.605C544.931 185.656 544.992 185.706 545.048 185.701L561.636 194.814C561.698 194.865 561.754 194.859 561.815 194.91C566.757 197.1 571.361 195.655 574.791 190.709C574.842 190.648 574.887 190.531 574.938 190.47L578.988 183.097C579.039 183.036 579.033 182.98 579.084 182.919C581.613 177.381 582.73 172.426 582.328 168.12C581.982 163.809 580.36 159.729 577.529 155.989C574.821 152.35 571.075 149.089 566.467 146.248C566.411 146.253 566.406 146.197 566.35 146.202L552.679 138.735C552.618 138.684 552.562 138.69 552.557 138.634C545.415 135.239 538.284 134.382 531.398 136.152C524.675 137.852 518.622 141.293 513.458 146.401C508.502 151.32 504.32 156.674 501.014 162.341C501.014 162.341 501.019 162.397 500.963 162.402L492.969 177.081C492.969 177.081 492.975 177.137 492.919 177.142C489.913 183.007 487.635 189.425 486.182 196.216C484.699 203.293 485.01 210.258 487.203 216.822ZM491.707 197.393C493.034 191.064 495.129 185.115 497.898 179.723L505.947 165.039C509.011 159.79 512.894 154.858 517.49 150.312C521.934 145.948 527.072 142.987 532.86 141.544C538.537 140.112 544.182 140.769 550.143 143.597L563.697 151.019C567.705 153.465 570.899 156.269 573.154 159.274C575.348 162.228 576.53 165.22 576.838 168.519C577.084 171.768 576.22 175.797 574.11 180.394L570.207 187.527C567.962 190.67 566.03 190.512 564.319 189.712L547.914 180.752C546.29 179.663 545.02 178.145 546.491 174.567C548.283 171.41 548.838 169.497 548.402 167.846C548.391 167.734 548.33 167.683 548.32 167.571C547.154 164.747 544.659 163.4 541.793 164.119C541.518 164.201 541.244 164.283 541.036 164.472C539.01 165.733 536.996 167.726 534.944 170.512C533.038 173.059 531.26 175.763 529.593 178.457C529.543 178.518 529.543 178.518 529.492 178.579L522.116 192.016C522.121 192.072 522.065 192.077 522.07 192.133C520.704 195.024 519.405 198.023 518.268 200.949C516.994 204.227 516.406 206.989 516.458 209.353C516.484 209.633 516.51 209.913 516.592 210.187C517.529 212.976 519.973 214.384 523.023 213.817C523.135 213.807 523.19 213.802 523.297 213.735C524.943 213.243 526.272 211.765 527.942 208.507C530.187 205.364 532.13 205.634 533.947 206.367L550.352 215.328C551.916 216.366 553.129 217.889 551.664 221.523L547.76 228.656C544.999 232.919 542.113 235.839 539.208 237.351C536.304 238.863 533.091 239.502 529.399 239.226C525.651 238.955 521.591 237.755 517.34 235.726L503.639 228.544C498.007 225.008 494.381 220.608 492.568 215.081C490.688 209.446 490.414 203.492 491.707 197.393Z" fill="#231F20"/>
<path d="M549.842 258.809L557.221 267.766C558.873 269.755 560.66 270.773 562.755 270.859C564.851 270.946 566.548 270.392 567.948 269.077C567.999 269.016 568.054 269.011 568.105 268.95L579.574 259.475C580.254 258.903 581.082 258.713 581.947 258.915L588.159 260.196C589.537 260.462 590.501 261.726 590.408 263.145C590.104 267.742 586.161 273.244 577.916 280.387C576.531 281.87 575.687 283.698 575.214 285.885C574.827 287.783 575.396 289.648 577.043 291.581L584.422 300.538C585.947 302.37 587.729 303.331 589.768 303.423C591.863 303.51 593.56 302.956 594.96 301.641C599.43 297.558 603.672 291.634 607.645 284.043C611.568 276.513 613.679 270.731 613.889 266.933C613.982 265.514 615.113 264.336 616.572 264.257C622.805 263.957 629.57 262.705 636.704 260.572C643.731 258.506 650.999 254.782 658.298 249.588C659.765 248.379 660.625 246.72 660.935 244.604C661.251 242.544 660.559 240.577 658.963 238.583L652.16 230.362C650.248 228.002 648.282 226.888 646.248 226.852C643.991 226.838 642.288 227.335 641.035 228.411C640.928 228.477 640.878 228.538 640.771 228.605C628.12 236.893 618.726 240.195 612.051 238.788C611.014 238.546 610.152 237.78 609.941 236.728C609.674 235.681 610.023 234.577 610.86 233.879L631.286 217.024C632.752 215.815 633.668 214.151 633.973 211.979C634.289 209.918 633.659 208.003 632.068 206.064L624.755 197.214C623.102 195.225 621.315 194.207 619.22 194.121C617.013 194.045 615.255 194.547 613.738 195.817L550.685 247.9C549.274 249.103 548.408 250.707 548.104 252.879C547.687 255.062 548.312 256.921 549.842 258.809Z" fill="#FCBA28"/>
<path d="M542.453 252.166C541.892 255.828 542.948 259.283 545.493 262.374L552.872 271.331C555.544 274.578 558.752 276.31 562.489 276.468C566.115 276.638 569.23 275.557 571.721 273.238L582.093 264.711L584.047 265.093C582.959 267.338 580.242 270.863 574.087 276.232C574.036 276.293 573.93 276.359 573.879 276.421C571.78 278.704 570.347 281.489 569.694 284.765C568.96 288.387 569.966 291.903 572.694 295.146L580.073 304.103C582.618 307.193 585.82 308.868 589.502 309.032C590.183 309.082 590.916 309.07 591.531 309.012C594.327 308.751 596.709 307.683 598.733 305.802C603.614 301.285 608.317 294.867 612.574 286.685C616.213 279.746 618.396 274.127 619.174 269.767C625.162 269.265 631.592 268.044 638.283 266.009C645.91 263.718 653.777 259.768 661.604 254.187C661.655 254.126 661.711 254.12 661.762 254.059C664.329 251.958 665.919 249.046 666.434 245.501C666.995 241.838 665.878 238.332 663.206 235.085L656.403 226.864C653.409 223.195 649.967 221.372 646.184 221.331C642.686 221.319 639.779 222.21 637.47 224.062C630.612 228.538 625.375 231.057 621.494 232.378L634.744 221.44C637.311 219.338 638.901 216.426 639.416 212.881C639.977 209.218 638.921 205.763 636.254 202.571L628.941 193.721C626.269 190.473 623.061 188.742 619.324 188.583C615.754 188.409 612.578 189.438 610.01 191.54L547.019 243.673C544.507 245.769 542.968 248.62 542.453 252.166ZM550.583 248.022L613.636 195.939C615.159 194.725 616.912 194.167 619.119 194.243C621.214 194.33 623.001 195.347 624.653 197.337L631.966 206.187C633.557 208.125 634.187 210.041 633.872 212.101C633.567 214.273 632.651 215.938 631.184 217.146L610.759 234.001C609.921 234.699 609.573 235.804 609.84 236.851C610.107 237.897 610.917 238.724 611.95 238.91C618.63 240.373 628.018 237.015 640.67 228.727C640.776 228.661 640.827 228.599 640.934 228.533C642.192 227.513 643.889 226.96 646.147 226.975C648.181 227.011 650.146 228.124 652.059 230.484L658.862 238.705C660.514 240.694 661.149 242.666 660.834 244.726C660.524 246.842 659.663 248.502 658.197 249.71C650.897 254.904 643.625 258.573 636.603 260.695C629.469 262.827 622.699 264.023 616.471 264.379C615.012 264.459 613.875 265.58 613.787 267.055C613.583 270.91 611.466 276.635 607.544 284.165C603.571 291.756 599.273 297.685 594.859 301.763C593.51 303.018 591.818 303.627 589.667 303.545C587.572 303.459 585.845 302.492 584.321 300.66L576.936 291.647C575.345 289.709 574.72 287.849 575.107 285.952C575.58 283.764 576.425 281.937 577.809 280.454C586.05 273.254 590.053 267.804 590.302 263.211C590.395 261.793 589.436 260.585 588.052 260.263L581.841 258.981C580.981 258.836 580.152 259.026 579.467 259.541L567.999 269.016C567.948 269.077 567.892 269.082 567.841 269.144C566.492 270.398 564.8 271.007 562.649 270.926C560.554 270.839 558.766 269.821 557.114 267.832L549.735 258.875C548.21 257.043 547.58 255.128 547.895 253.068C548.307 250.83 549.167 249.17 550.583 248.022Z" fill="#231F20"/>
<path d="M362.205 548.601L547.264 336.948L534.9 329.585L539.996 323.75C540.559 323.134 540.761 322.269 540.626 321.435C540.492 320.601 540.033 319.911 539.315 319.47L478.704 283.499C478.047 283.109 477.304 283.009 476.532 283.194C475.815 283.374 475.186 283.884 474.796 284.541L360.501 485.02C360.191 485.331 359.754 485.484 359.302 485.47C358.793 485.461 358.315 485.168 357.993 484.746C357.861 484.533 357.672 484.325 357.489 484.173L318.745 451.632C317.64 450.664 315.957 450.764 314.927 451.819L279.63 488.225C279.011 488.847 278.749 489.661 278.888 490.551C279.022 491.384 279.487 492.131 280.205 492.571L294.738 501.424L291.03 505.211L362.205 548.601ZM317.102 457.596L353.583 488.26C354.869 489.945 356.885 490.998 358.98 491.085C361.248 491.211 363.468 490.214 364.887 488.503C364.989 488.38 365.09 488.258 365.186 488.08L478.282 289.856L533.521 322.662L352.285 529.954L286.076 489.598L317.102 457.596Z" fill="#231F20"/>
<path d="M352.285 529.954L533.577 322.657L478.338 289.851L365.242 488.075C365.141 488.197 365.045 488.375 364.943 488.497C363.468 490.214 361.304 491.206 359.036 491.079C356.885 490.998 354.924 489.94 353.639 488.255L317.158 457.59L286.132 489.592L352.285 529.954Z" fill="#ED203D"/>
<circle cx="417.5" cy="415.5" r="158.5" fill="#12B5E5"/>
</svg>
